<svg id="Group_167" data-name="Group 167" xmlns="http://www.w3.org/2000/svg" width="44.353" height="42.227" viewBox="0 0 44.353 42.227">
  <g id="bill" transform="translate(0)">
    <path id="Path_107" data-name="Path 107" d="M348.813,42.3l.059,0a.722.722,0,0,0,.1-.007,1.616,1.616,0,0,1,1.584,1.614.723.723,0,1,0,1.446,0,3.067,3.067,0,0,0-2.407-2.991v-.695a.723.723,0,1,0-1.446,0v.728a3.062,3.062,0,0,0,.791,6.02,1.616,1.616,0,1,1-1.616,1.616.723.723,0,1,0-1.446,0,3.067,3.067,0,0,0,2.271,2.958v.792a.723.723,0,1,0,1.446,0v-.759a3.062,3.062,0,0,0-.655-6.053,1.615,1.615,0,0,1-.126-3.225Zm0,0" transform="translate(-314.841 -35.968)" fill="#fab323"/>
    <path id="Path_108" data-name="Path 108" d="M34.152.391a10.31,10.31,0,0,0-9.607,6.747H6.71a.751.751,0,0,0-.719.751L5.821,33.1H.738A.707.707,0,0,0,0,33.782v3.2A5.645,5.645,0,0,0,5.389,42.6v.016H27.576V42.6c.18.007.254.021.367.021h.015a5.644,5.644,0,0,0,5.635-5.644V20.8c.18.01.37.015.556.015a10.212,10.212,0,0,0,0-20.424ZM5.663,41.181h0a4.227,4.227,0,0,1-4.221-4.208V34.534H22.276v2.429a5.637,5.637,0,0,0,1.664,3.994c.075.075.169.134.248.224Zm26.494-4.208a4.207,4.207,0,0,1-4.2,4.208h-.014a4.238,4.238,0,0,1-4.231-4.217V33.782a.663.663,0,0,0-.686-.685H7.259L7.423,8.575H24.146a10.8,10.8,0,0,0-.2,2,10.133,10.133,0,0,0,.867,4.112H18.029a.719.719,0,0,0,0,1.437H25.6a10.141,10.141,0,0,0,6.561,4.5Zm1.995-17.595a8.765,8.765,0,1,1,8.765-8.765A8.765,8.765,0,0,1,34.152,19.378Zm0,0" transform="translate(0 -0.391)" fill="#fab323"/>
    <path id="Path_109" data-name="Path 109" d="M126.077,212.746a2.243,2.243,0,1,0,2.315,2.241A2.281,2.281,0,0,0,126.077,212.746Zm0,3.036a.8.8,0,1,1,.869-.795A.835.835,0,0,1,126.077,215.782Zm0,0" transform="translate(-112.653 -193.686)" fill="#fab323"/>
    <path id="Path_110" data-name="Path 110" d="M192.719,230.227a.723.723,0,0,0,.723.723h9.642a.723.723,0,1,0,0-1.446h-9.642A.723.723,0,0,0,192.719,230.227Zm0,0" transform="translate(-175.445 -208.929)" fill="#fab323"/>
    <path id="Path_111" data-name="Path 111" d="M126.077,143.2a2.243,2.243,0,1,0,2.315,2.242A2.282,2.282,0,0,0,126.077,143.2Zm0,3.037a.8.8,0,1,1,.869-.795.835.835,0,0,1-.869.795Zm0,0" transform="translate(-112.653 -130.385)" fill="#fab323"/>
    <path id="Path_112" data-name="Path 112" d="M126.077,282.281a2.243,2.243,0,1,0,2.315,2.241A2.281,2.281,0,0,0,126.077,282.281Zm0,3.036a.8.8,0,1,1,.869-.795A.835.835,0,0,1,126.077,285.318Zm0,0" transform="translate(-112.653 -256.98)" fill="#fab323"/>
    <path id="Path_113" data-name="Path 113" d="M203.084,299.5h-9.642a.723.723,0,0,0,0,1.446h9.642a.723.723,0,1,0,0-1.446Zm0,0" transform="translate(-175.445 -272.643)" fill="#fab323"/>
  </g>
</svg>
