<svg xmlns="http://www.w3.org/2000/svg" width="22.733" height="22" viewBox="0 0 22.733 22">
  <g id="company" transform="translate(-8 -24)">
    <path id="Path_460" data-name="Path 460" d="M28.9,45.267h-.367v-18.7a.367.367,0,0,0-.367-.367h-2.2V24.367A.367.367,0,0,0,25.6,24H17.533a.367.367,0,0,0-.367.367V26.2h-2.2a.367.367,0,0,0-.367.367v18.7H12.033V42.673a2.567,2.567,0,0,0,1.222-4.556,1.833,1.833,0,1,0-3.177,0A2.567,2.567,0,0,0,11.3,42.673v.791l-.474-.474a.367.367,0,0,0-.519.519l.917.917a.367.367,0,0,0,.076.058v.783H8.367a.367.367,0,1,0,0,.733H28.9a.367.367,0,0,0,0-.733ZM11.667,39.4a.367.367,0,0,0-.367.367V41.93a1.834,1.834,0,0,1-.521-3.4.367.367,0,0,0,.089-.573,1.1,1.1,0,1,1,1.6,0,.367.367,0,0,0,.089.573,1.834,1.834,0,0,1-.521,3.4V39.767A.367.367,0,0,0,11.667,39.4ZM17.9,24.733h7.333V26.2H17.9Zm3.3,20.533H20.1v-4.4h1.1Zm1.833,0h-1.1v-4.4h1.1Zm4.767,0H23.767V40.5a.367.367,0,0,0-.367-.367H19.733a.367.367,0,0,0-.367.367v4.767H15.333V26.933H27.8Z" transform="translate(0 0)" fill="#fab323"/>
    <path id="Path_461" data-name="Path 461" d="M480.733,488h-.367a.367.367,0,1,0,0,.733h.367a.367.367,0,1,0,0-.733Z" transform="translate(-450.367 -442.733)" fill="#fab323"/>
    <path id="Path_462" data-name="Path 462" d="M267.3,280h-2.933a.367.367,0,0,0-.367.367V283.3a.367.367,0,0,0,.367.367H267.3a.367.367,0,0,0,.367-.367v-2.933A.367.367,0,0,0,267.3,280Zm-.367,2.933h-2.2v-2.2h2.2Z" transform="translate(-244.267 -244.267)" fill="#fab323"/>
    <path id="Path_463" data-name="Path 463" d="M179.3,280h-2.933a.367.367,0,0,0-.367.367V283.3a.367.367,0,0,0,.367.367H179.3a.367.367,0,0,0,.367-.367v-2.933A.367.367,0,0,0,179.3,280Zm-.367,2.933h-2.2v-2.2h2.2Z" transform="translate(-160.3 -244.267)" fill="#fab323"/>
    <path id="Path_464" data-name="Path 464" d="M355.3,280h-2.933a.367.367,0,0,0-.367.367V283.3a.367.367,0,0,0,.367.367H355.3a.367.367,0,0,0,.367-.367v-2.933A.367.367,0,0,0,355.3,280Zm-.367,2.933h-2.2v-2.2h2.2Z" transform="translate(-328.233 -244.267)" fill="#fab323"/>
    <path id="Path_465" data-name="Path 465" d="M267.3,192h-2.933a.367.367,0,0,0-.367.367V195.3a.367.367,0,0,0,.367.367H267.3a.367.367,0,0,0,.367-.367v-2.933A.367.367,0,0,0,267.3,192Zm-.367,2.933h-2.2v-2.2h2.2Z" transform="translate(-244.267 -160.3)" fill="#fab323"/>
    <path id="Path_466" data-name="Path 466" d="M179.3,192h-2.933a.367.367,0,0,0-.367.367V195.3a.367.367,0,0,0,.367.367H179.3a.367.367,0,0,0,.367-.367v-2.933A.367.367,0,0,0,179.3,192Zm-.367,2.933h-2.2v-2.2h2.2Z" transform="translate(-160.3 -160.3)" fill="#fab323"/>
    <path id="Path_467" data-name="Path 467" d="M355.3,192h-2.933a.367.367,0,0,0-.367.367V195.3a.367.367,0,0,0,.367.367H355.3a.367.367,0,0,0,.367-.367v-2.933A.367.367,0,0,0,355.3,192Zm-.367,2.933h-2.2v-2.2h2.2Z" transform="translate(-328.233 -160.3)" fill="#fab323"/>
    <path id="Path_468" data-name="Path 468" d="M267.3,104h-2.933a.367.367,0,0,0-.367.367V107.3a.367.367,0,0,0,.367.367H267.3a.367.367,0,0,0,.367-.367v-2.933A.367.367,0,0,0,267.3,104Zm-.367,2.933h-2.2v-2.2h2.2Z" transform="translate(-244.267 -76.333)" fill="#fab323"/>
    <path id="Path_469" data-name="Path 469" d="M179.3,104h-2.933a.367.367,0,0,0-.367.367V107.3a.367.367,0,0,0,.367.367H179.3a.367.367,0,0,0,.367-.367v-2.933A.367.367,0,0,0,179.3,104Zm-.367,2.933h-2.2v-2.2h2.2Z" transform="translate(-160.3 -76.333)" fill="#fab323"/>
    <path id="Path_470" data-name="Path 470" d="M352,104.367V107.3a.367.367,0,0,0,.367.367H355.3a.367.367,0,0,0,.367-.367v-2.933A.367.367,0,0,0,355.3,104h-2.933A.367.367,0,0,0,352,104.367Zm.733.367h2.2v2.2h-2.2Z" transform="translate(-328.233 -76.333)" fill="#fab323"/>
    <path id="Path_471" data-name="Path 471" d="M80.733,328.367a.367.367,0,1,0-.733,0v.367a.367.367,0,0,0,.733,0Z" transform="translate(-68.7 -290.067)" fill="#fab323"/>
  </g>
</svg>
