<svg xmlns="http://www.w3.org/2000/svg" width="25.002" height="25" viewBox="0 0 25.002 25">
  <g id="email" transform="translate(-0.001 -0.015)">
    <g id="Group_20" data-name="Group 20" transform="translate(0.001 0.015)">
      <g id="Group_19" data-name="Group 19" transform="translate(0 0)">
        <path id="Path_103" data-name="Path 103" d="M25,9.6c0-.009,0-.016,0-.025a.4.4,0,0,0-.017-.085.431.431,0,0,0-.024-.072.4.4,0,0,0-.042-.063.409.409,0,0,0-.057-.066c-.007-.006-.01-.014-.017-.019L20.835,6.156V2.93a1.25,1.25,0,0,0-1.25-1.25H15.07L13.262.276a1.236,1.236,0,0,0-1.52,0L9.933,1.68H5.418a1.25,1.25,0,0,0-1.25,1.25V6.156L.162,9.268c-.007.005-.01.013-.017.019a.409.409,0,0,0-.057.066.4.4,0,0,0-.042.063.411.411,0,0,0-.024.072.4.4,0,0,0-.017.083c0,.008,0,.016,0,.025V23.765a1.235,1.235,0,0,0,.07.394.413.413,0,0,0,.458.625,1.241,1.241,0,0,0,.722.231h22.5a1.242,1.242,0,0,0,.724-.235.411.411,0,0,0,.457-.622A1.236,1.236,0,0,0,25,23.765V9.6ZM12.251.934a.4.4,0,0,1,.5,0l.961.746H11.293ZM1.354,24.182l10.9-8.465a.4.4,0,0,1,.5,0l10.9,8.465Zm22.815-.651L13.261,15.059a1.236,1.236,0,0,0-1.518,0L.834,23.531v-13.3l6.828,5.3a.417.417,0,1,0,.511-.659L1.236,9.488,4.168,7.211v3.22a.417.417,0,0,0,.833,0V2.93a.417.417,0,0,1,.417-.417H19.585A.417.417,0,0,1,20,2.93v7.5a.417.417,0,1,0,.833,0V7.211l2.931,2.278-6.95,5.4a.417.417,0,1,0,.511.658l6.841-5.312Z" transform="translate(-0.001 -0.015)" fill="#fab323"/>
        <path id="Path_104" data-name="Path 104" d="M162.543,94.679h8.351a.418.418,0,1,0,0-.835h-8.351a.418.418,0,1,0,0,.835Z" transform="translate(-154.217 -89.262)" fill="#fab323"/>
        <path id="Path_105" data-name="Path 105" d="M171.311,145.462a.418.418,0,0,0-.418-.418h-8.351a.418.418,0,1,0,0,.835h8.351A.418.418,0,0,0,171.311,145.462Z" transform="translate(-154.217 -137.962)" fill="#fab323"/>
        <path id="Path_106" data-name="Path 106" d="M260.585,196.661a.417.417,0,0,0-.417-.418H256.41a.418.418,0,0,0,0,.835h3.758A.418.418,0,0,0,260.585,196.661Z" transform="translate(-243.497 -186.662)" fill="#fab323"/>
      </g>
    </g>
  </g>
</svg>
