<svg xmlns="http://www.w3.org/2000/svg" width="23.7" height="19.955" viewBox="0 0 23.7 19.955">
  <g id="Group_169" data-name="Group 169" transform="translate(0 -86.757)">
    <path id="Path_337" data-name="Path 337" d="M124.86,223.782a1.253,1.253,0,1,0,1.294,1.253A1.275,1.275,0,0,0,124.86,223.782Zm0,1.7a.446.446,0,1,1,.485-.444A.467.467,0,0,1,124.86,225.479Z" transform="translate(-117.314 -130.092)" fill="#fab323"/>
    <path id="Path_338" data-name="Path 338" d="M192.414,240.917c0,.223.112.4.249.4h3.326c.138,0,.25-.181.25-.4s-.112-.4-.25-.4h-3.326C192.526,240.513,192.414,240.694,192.414,240.917Z" transform="translate(-182.678 -145.976)" fill="#fab323"/>
    <path id="Path_339" data-name="Path 339" d="M124.86,154.349a1.253,1.253,0,1,0,1.294,1.253A1.275,1.275,0,0,0,124.86,154.349Zm0,1.7a.446.446,0,1,1,.485-.444.467.467,0,0,1-.485.444Z" transform="translate(-117.314 -64.172)" fill="#fab323"/>
    <path id="Path_340" data-name="Path 340" d="M192.414,172.29a.4.4,0,0,0,.4.4h5.388a.4.4,0,1,0,0-.808h-5.388A.4.4,0,0,0,192.414,172.29Z" transform="translate(-182.678 -80.821)" fill="#fab323"/>
    <path id="Path_341" data-name="Path 341" d="M282.169,233.9a1.516,1.516,0,0,0-2.143,0l-6.009,6.009a.337.337,0,0,0-.086.148l-.79,2.853a.337.337,0,0,0,.414.415l2.853-.79a.336.336,0,0,0,.148-.086l6.009-6.009a1.517,1.517,0,0,0,0-2.143Zm-7.418,6.228,4.918-4.918,1.586,1.586-4.918,4.918Zm-.317.636,1.267,1.267-1.753.486Zm7.654-4.8-.357.357-1.586-1.586.357-.357a.842.842,0,0,1,1.191,0l.4.4A.843.843,0,0,1,282.088,235.961Z" transform="translate(-259.308 -139.275)" fill="#fab323"/>
    <path id="Path_342" data-name="Path 342" d="M18.086,102.751v.786a2.366,2.366,0,0,1-2.362,2.367h-.008a2.384,2.384,0,0,1-2.38-2.372v-1.79a.373.373,0,0,0-.386-.385H4.082l.093-13.792H18.086v9.349l.808-.941V87.134a.4.4,0,0,0-.419-.377H3.774a.423.423,0,0,0-.4.422l-.1,14.178H.415a.4.4,0,0,0-.415.385v1.8A3.175,3.175,0,0,0,3.031,106.7v.009H15.51V106.7c.1,0,.143.012.207.012h.009a3.175,3.175,0,0,0,3.17-3.174v-1.512ZM3.185,105.9h0a2.377,2.377,0,0,1-2.374-2.367v-1.372H12.529v1.366a3.171,3.171,0,0,0,.936,2.247c.042.042.1.075.14.126Z" fill="#fab323"/>
  </g>
</svg>
