<svg id="Group_168" data-name="Group 168" xmlns="http://www.w3.org/2000/svg" width="42.481" height="35.403" viewBox="0 0 42.481 35.403">
  <g id="Group_169" data-name="Group 169" transform="translate(0 0)">
    <path id="Path_337" data-name="Path 337" d="M125.861,223.782a2.223,2.223,0,1,0,2.3,2.222A2.262,2.262,0,0,0,125.861,223.782Zm0,3.01a.791.791,0,1,1,.861-.788A.828.828,0,0,1,125.861,226.792Z" transform="translate(-112.345 -211.481)" fill="#fab323"/>
    <path id="Path_338" data-name="Path 338" d="M192.414,241.23c0,.4.2.717.443.717h5.9c.244,0,.443-.321.443-.717s-.2-.717-.443-.717h-5.9C192.612,240.513,192.414,240.834,192.414,241.23Z" transform="translate(-174.928 -226.71)" fill="#fab323"/>
    <path id="Path_339" data-name="Path 339" d="M125.861,154.349a2.223,2.223,0,1,0,2.3,2.223A2.262,2.262,0,0,0,125.861,154.349Zm0,3.011a.791.791,0,1,1,.861-.788.828.828,0,0,1-.861.788Z" transform="translate(-112.345 -148.281)" fill="#fab323"/>
    <path id="Path_340" data-name="Path 340" d="M192.414,172.6a.717.717,0,0,0,.717.717h9.559a.717.717,0,1,0,0-1.434h-9.559A.717.717,0,0,0,192.414,172.6Z" transform="translate(-174.899 -164.244)" fill="#fab323"/>
    <path id="Path_341" data-name="Path 341" d="M289.168,234.242a2.689,2.689,0,0,0-3.8,0l-10.66,10.66a.6.6,0,0,0-.153.263l-1.4,5.061a.6.6,0,0,0,.735.736l5.061-1.4a.6.6,0,0,0,.263-.153l10.66-10.661a2.692,2.692,0,0,0,0-3.8Zm-13.161,11.049,8.725-8.725,2.814,2.814-8.725,8.725Zm-.562,1.128,2.248,2.248-3.109.862Zm13.579-8.518-.634.634-2.814-2.814.634-.634a1.494,1.494,0,0,1,2.112,0l.7.7A1.5,1.5,0,0,1,289.024,237.9Z" transform="translate(-248.175 -220.285)" fill="#fab323"/>
    <path id="Path_342" data-name="Path 342" d="M32.5,115.133v1.395a4.225,4.225,0,0,1-4.244,4.2h-.014a4.257,4.257,0,0,1-4.276-4.208v-3.175a.658.658,0,0,0-.2-.491.675.675,0,0,0-.5-.193H7.337L7.5,88.191h25v16.585l1.453-1.669V87.425a.721.721,0,0,0-.753-.668H6.782a.754.754,0,0,0-.726.749L5.884,112.66H.745a.711.711,0,0,0-.745.683v3.192a5.665,5.665,0,0,0,5.447,5.609v.016H27.872v-.021c.182.007.256.021.371.021h.016a5.669,5.669,0,0,0,5.7-5.632v-2.682ZM5.724,120.726h0a4.245,4.245,0,0,1-4.266-4.2v-2.434H22.516v2.424A5.589,5.589,0,0,0,24.2,120.5c.076.075.171.133.251.223Z" transform="translate(0 -86.757)" fill="#fab323"/>
  </g>
</svg>
