<svg id="Group_233" data-name="Group 233" xmlns="http://www.w3.org/2000/svg" width="31.682" height="39.031" viewBox="0 0 31.682 39.031">
  <g id="rejected" transform="translate(0 0)">
    <path id="Path_472" data-name="Path 472" d="M79.547,10.133l-9.8-9.8A1.143,1.143,0,0,0,68.94,0H52.406A4.21,4.21,0,0,0,48.2,4.206v30.62a4.21,4.21,0,0,0,4.206,4.206H75.677a4.21,4.21,0,0,0,4.205-4.206V10.942a1.144,1.144,0,0,0-.335-.809ZM70.084,3.9,75.978,9.8H72A1.921,1.921,0,0,1,70.084,7.88Zm5.593,32.84H52.406a1.921,1.921,0,0,1-1.919-1.919V4.206a1.921,1.921,0,0,1,1.919-1.919H67.8V7.88A4.21,4.21,0,0,0,72,12.085H77.6v22.74A1.921,1.921,0,0,1,75.677,36.744Z" transform="translate(-48.2 0)" fill="#fab323"/>
    <path id="Path_473" data-name="Path 473" d="M138.25,192.8a9.717,9.717,0,1,0,9.717,9.717A9.728,9.728,0,0,0,138.25,192.8Zm0,17.147a7.43,7.43,0,1,1,7.43-7.43A7.439,7.439,0,0,1,138.25,209.947Z" transform="translate(-122.409 -178.102)" fill="#fab323"/>
    <path id="Path_474" data-name="Path 474" d="M214.065,271.519a1.143,1.143,0,0,0-1.617,0l-1.79,1.79-1.79-1.79a1.143,1.143,0,1,0-1.617,1.617l1.79,1.79-1.79,1.79a1.143,1.143,0,0,0,1.617,1.617l1.79-1.79,1.79,1.79a1.143,1.143,0,0,0,1.617-1.617l-1.79-1.79,1.79-1.79A1.143,1.143,0,0,0,214.065,271.519Z" transform="translate(-194.817 -250.512)" fill="#fab323"/>
  </g>
</svg>
