<svg xmlns="http://www.w3.org/2000/svg" width="38" height="38" viewBox="0 0 38 38">
  <g id="Group_123" data-name="Group 123" transform="translate(-7985 -1854)">
    <circle id="Ellipse_6" data-name="Ellipse 6" cx="19" cy="19" r="19" transform="translate(7985 1854)" fill="#e4fbf8"/>
    <g id="bill" transform="translate(7991.888 1860.846)">
      <path id="Path_107" data-name="Path 107" d="M347.64,41.185l.035,0a.433.433,0,0,0,.06,0,.971.971,0,0,1,.951.969.434.434,0,0,0,.869,0,1.842,1.842,0,0,0-1.445-1.8v-.417a.434.434,0,1,0-.869,0v.437a1.839,1.839,0,0,0,.475,3.615.97.97,0,1,1-.97.97.434.434,0,0,0-.869,0,1.842,1.842,0,0,0,1.364,1.776v.476a.434.434,0,1,0,.869,0v-.456a1.839,1.839,0,0,0-.394-3.635.97.97,0,0,1-.076-1.937Zm0,0" transform="translate(-328.567 -36.99)" fill="#05ccce"/>
      <path id="Path_108" data-name="Path 108" d="M19.25.391a5.811,5.811,0,0,0-5.415,3.8H3.782a.424.424,0,0,0-.405.423l-.1,14.209H.416A.4.4,0,0,0,0,19.212v1.8a3.182,3.182,0,0,0,3.038,3.169v.009H15.543V24.18c.1,0,.143.012.207.012h.009a3.181,3.181,0,0,0,3.176-3.181V11.894c.1.006.208.009.313.009a5.756,5.756,0,0,0,0-11.512ZM3.192,23.382h0A2.382,2.382,0,0,1,.81,21.011V19.636H12.556V21a3.177,3.177,0,0,0,.938,2.251c.043.043.1.075.14.126Zm14.934-2.372a2.371,2.371,0,0,1-2.367,2.372h-.008a2.389,2.389,0,0,1-2.385-2.377V19.212a.374.374,0,0,0-.387-.386H4.091L4.184,5H13.61A6.086,6.086,0,0,0,13.5,6.129a5.712,5.712,0,0,0,.489,2.318H10.162a.405.405,0,0,0,0,.81h4.265a5.716,5.716,0,0,0,3.7,2.537Zm1.124-9.917A4.941,4.941,0,1,1,24.19,6.153,4.94,4.94,0,0,1,19.25,11.093Zm0,0" transform="translate(0 0)" fill="#05ccce"/>
      <path id="Path_109" data-name="Path 109" d="M125.152,212.746a1.347,1.347,0,1,0,1.39,1.346A1.37,1.37,0,0,0,125.152,212.746Zm0,1.823a.479.479,0,1,1,.522-.477A.5.5,0,0,1,125.152,214.57Zm0,0" transform="translate(-117.548 -201.696)" fill="#05ccce"/>
      <path id="Path_110" data-name="Path 110" d="M192.719,229.938a.434.434,0,0,0,.434.434h5.791a.434.434,0,1,0,0-.869h-5.791A.434.434,0,0,0,192.719,229.938Zm0,0" transform="translate(-183.195 -217.543)" fill="#05ccce"/>
      <path id="Path_111" data-name="Path 111" d="M125.152,143.2a1.347,1.347,0,1,0,1.39,1.346A1.37,1.37,0,0,0,125.152,143.2Zm0,1.824a.479.479,0,1,1,.522-.477.5.5,0,0,1-.522.477Zm0,0" transform="translate(-117.548 -135.644)" fill="#05ccce"/>
      <path id="Path_112" data-name="Path 112" d="M125.152,282.281a1.347,1.347,0,1,0,1.39,1.346A1.37,1.37,0,0,0,125.152,282.281Zm0,1.823a.479.479,0,1,1,.522-.477A.5.5,0,0,1,125.152,284.1Zm0,0" transform="translate(-117.548 -267.74)" fill="#05ccce"/>
      <path id="Path_113" data-name="Path 113" d="M198.944,299.5h-5.791a.434.434,0,1,0,0,.869h5.791a.434.434,0,1,0,0-.869Zm0,0" transform="translate(-183.195 -284.008)" fill="#05ccce"/>
    </g>
  </g>
</svg>
