<svg xmlns="http://www.w3.org/2000/svg" width="31.87" height="30.474" viewBox="0 0 31.87 30.474">
  <g id="Group_178" data-name="Group 178" transform="translate(-319.687 678.988) rotate(-90)">
    <path id="Path_387" data-name="Path 387" d="M654.061,324.794a5.374,5.374,0,1,0,5.548,5.371A5.467,5.467,0,0,0,654.061,324.794Zm0,7.276a1.913,1.913,0,1,1,2.082-1.905A2,2,0,0,1,654.061,332.07Z" transform="translate(0 -3.999)"/>
    <path id="Path_388" data-name="Path 388" d="M698.4,401.259a5.374,5.374,0,1,0,5.548,5.371A5.467,5.467,0,0,0,698.4,401.259Zm0,7.276a1.913,1.913,0,1,1,2.082-1.905A2,2,0,0,1,698.4,408.535Z" transform="translate(-34.721 -63.871)"/>
    <path id="Path_389" data-name="Path 389" d="M743.363,350.468a5.374,5.374,0,1,0,5.548,5.371A5.467,5.467,0,0,0,743.363,350.468Zm0,7.276a1.913,1.913,0,1,1,2.082-1.9A2,2,0,0,1,743.363,357.744Z" transform="translate(-69.924 -24.102)"/>
    <g id="Group_178-2" data-name="Group 178" transform="translate(671.722 319.687)">
      <path id="Path_390" data-name="Path 390" d="M755.466,384.989V400.61a1.762,1.762,0,1,0,3.466,0V384.989Z" transform="translate(-755.466 -370.819)"/>
      <path id="Path_391" data-name="Path 391" d="M758.932,329.74v-7.974a1.762,1.762,0,1,0-3.466,0v7.974Z" transform="translate(-755.466 -319.687)"/>
    </g>
    <g id="Group_179" data-name="Group 179" transform="translate(662.025 319.687)">
      <path id="Path_392" data-name="Path 392" d="M710.78,434.385v4.9a1.762,1.762,0,1,0,3.466,0v-4.9Z" transform="translate(-710.78 -409.496)"/>
      <path id="Path_393" data-name="Path 393" d="M714.246,340.458V321.766a1.762,1.762,0,1,0-3.466,0v18.692Z" transform="translate(-710.78 -319.687)"/>
    </g>
    <g id="Group_180" data-name="Group 180" transform="translate(652.329 319.687)">
      <path id="Path_394" data-name="Path 394" d="M669.56,324.108v-2.342a1.762,1.762,0,1,0-3.466,0v2.342Z" transform="translate(-666.093 -319.687)"/>
      <path id="Path_395" data-name="Path 395" d="M666.093,359.036v21.253a1.762,1.762,0,1,0,3.466,0V359.036Z" transform="translate(-666.093 -350.497)"/>
    </g>
  </g>
</svg>
