<svg xmlns="http://www.w3.org/2000/svg" width="21.429" height="25" viewBox="0 0 21.429 25">
  <g id="user" transform="translate(0 -0.008)">
    <path id="Path_127" data-name="Path 127" d="M91.283,11.916a5.954,5.954,0,1,1,5.951-5.954A5.959,5.959,0,0,1,91.283,11.916Zm0-10.122a4.168,4.168,0,1,0,4.166,4.168A4.171,4.171,0,0,0,91.283,1.794Zm0,0" transform="translate(-80.569)"/>
    <path id="Path_128" data-name="Path 128" d="M20.536,266.725H.893A.893.893,0,0,1,0,265.832v-4.168a5.662,5.662,0,0,1,5.655-5.656H15.774a5.662,5.662,0,0,1,5.655,5.656v4.168A.893.893,0,0,1,20.536,266.725Zm-18.75-1.786H19.643v-3.275a3.874,3.874,0,0,0-3.869-3.87H5.655a3.874,3.874,0,0,0-3.869,3.87Zm0,0" transform="translate(0 -241.718)"/>
  </g>
</svg>
