<svg xmlns="http://www.w3.org/2000/svg" width="25" height="25" viewBox="0 0 25 25">
  <g id="dashboard" transform="translate(-1 -1)">
    <path id="Path_114" data-name="Path 114" d="M23.581,14.52V6.613a2.821,2.821,0,1,0-3.226-2.79H1V19.952H13.117A6.447,6.447,0,1,0,23.581,14.52Zm-.4-12.714a2.016,2.016,0,1,1-2.016,2.016A2.018,2.018,0,0,1,23.177,1.806ZM1.806,4.629H20.474a2.821,2.821,0,0,0,.446.881L18.454,7.976a1.168,1.168,0,0,0-1.037,0L16.6,7.164a1.2,1.2,0,0,0,.121-.519,1.21,1.21,0,0,0-2.419,0,1.19,1.19,0,0,0,.121.518L12.406,9.185a1.2,1.2,0,0,0-.519-.121,1.21,1.21,0,1,0,1.21,1.21,1.19,1.19,0,0,0-.121-.518L15,7.734a1.169,1.169,0,0,0,1.037,0l.813.812a1.2,1.2,0,0,0-.121.519,1.21,1.21,0,0,0,2.419,0,1.19,1.19,0,0,0-.121-.518L21.49,6.08a2.805,2.805,0,0,0,1.284.533V13.97A6.412,6.412,0,0,0,14.71,15.3V13.5H12.29v4.839h.924a6.468,6.468,0,0,0-.1.806H1.806ZM17.935,8.661a.4.4,0,1,1-.4.4A.4.4,0,0,1,17.935,8.661ZM15.113,6.645a.4.4,0,1,1,.4.4A.4.4,0,0,1,15.113,6.645ZM12.29,10.274a.4.4,0,1,1-.4-.4A.4.4,0,0,1,12.29,10.274Zm7.258,12.5a3.226,3.226,0,1,1,3.226-3.226A3.23,3.23,0,0,1,19.548,22.774ZM13.9,16.432a6.4,6.4,0,0,0-.479,1.1H13.1V14.306H13.9Zm5.242-2.508v1.613a4.024,4.024,0,0,0-3.27,5.667l-1.4.808a5.626,5.626,0,0,1,4.669-8.087Zm.4,11.27a5.642,5.642,0,0,1-4.673-2.482l1.4-.811a4.019,4.019,0,0,0,6.536,0l1.4.811A5.642,5.642,0,0,1,19.548,25.194Zm5.072-3.183-1.4-.808a4.024,4.024,0,0,0-3.27-5.667V13.924a5.626,5.626,0,0,1,4.669,8.087Z"/>
    <path id="Path_115" data-name="Path 115" d="M43.43,41a2.43,2.43,0,1,0,2.43,2.43A2.432,2.432,0,0,0,43.43,41Zm0,4.049a1.62,1.62,0,1,1,1.62-1.62A1.621,1.621,0,0,1,43.43,45.049Z" transform="translate(-23.888 -23.888)"/>
    <path id="Path_116" data-name="Path 116" d="M5,12h.81v.81H5Z" transform="translate(-2.38 -6.565)"/>
    <path id="Path_117" data-name="Path 117" d="M9,12h5.669v.81H9Z" transform="translate(-4.76 -6.565)"/>
    <path id="Path_118" data-name="Path 118" d="M5,16h.81v.81H5Z" transform="translate(-2.38 -8.952)"/>
    <path id="Path_119" data-name="Path 119" d="M9,16h5.669v.81H9Z" transform="translate(-4.76 -8.952)"/>
    <path id="Path_120" data-name="Path 120" d="M5,20h.81v.81H5Z" transform="translate(-2.38 -11.34)"/>
    <path id="Path_121" data-name="Path 121" d="M9,20h5.669v.81H9Z" transform="translate(-4.76 -11.34)"/>
    <path id="Path_122" data-name="Path 122" d="M5,24h.81v.81H5Z" transform="translate(-2.38 -13.727)"/>
    <path id="Path_123" data-name="Path 123" d="M9,24h5.669v.81H9Z" transform="translate(-4.76 -13.727)"/>
    <path id="Path_124" data-name="Path 124" d="M5,38.049H7.43V34H5Zm.81-3.24h.81v2.43H5.81Z" transform="translate(-2.38 -19.704)"/>
    <path id="Path_125" data-name="Path 125" d="M13,39.24h2.43V36H13Zm.81-2.43h.81v1.62h-.81Z" transform="translate(-7.164 -20.896)"/>
    <path id="Path_126" data-name="Path 126" d="M21,34.479h2.43V28H21Zm.81-5.669h.81v4.859h-.81Z" transform="translate(-11.939 -16.129)"/>
  </g>
</svg>
