<svg xmlns="http://www.w3.org/2000/svg" width="26" height="24.802" viewBox="0 0 26 24.802">
  <g id="Group_170" data-name="Group 170" transform="translate(0.5 -11.262)">
    <path id="Path_343" data-name="Path 343" d="M19.25,11.762a5.812,5.812,0,0,0-5.415,3.8H3.782a.424.424,0,0,0-.405.423L3.281,30.2H.416A.4.4,0,0,0,0,30.583v1.8a3.182,3.182,0,0,0,3.038,3.169v.009H15.543v-.012c.1,0,.143.012.207.012h.009a3.182,3.182,0,0,0,3.176-3.181V23.266c.1.006.208.009.313.009a5.756,5.756,0,0,0,0-11.512ZM3.192,34.754h0A2.382,2.382,0,0,1,.81,32.382V31.007H12.556v1.369a3.178,3.178,0,0,0,.938,2.251c.043.042.1.075.14.126Zm14.934-2.372a2.371,2.371,0,0,1-2.367,2.372h-.008a2.389,2.389,0,0,1-2.385-2.377V30.583a.374.374,0,0,0-.387-.386H4.091l.093-13.822H13.61A6.085,6.085,0,0,0,13.5,17.5a5.711,5.711,0,0,0,.489,2.318H10.162a.405.405,0,1,0,0,.81h4.265a5.716,5.716,0,0,0,3.7,2.537Zm1.124-9.917a4.941,4.941,0,1,1,4.941-4.941A4.94,4.94,0,0,1,19.25,22.464Z" stroke="rgba(0,0,0,0)" stroke-width="1"/>
    <path id="Path_344" data-name="Path 344" d="M124.862,223.782a1.256,1.256,0,1,0,1.3,1.255A1.278,1.278,0,0,0,124.862,223.782Zm0,1.7a.447.447,0,1,1,.487-.445A.468.468,0,0,1,124.862,225.482Z" transform="translate(-117.3 -201.268)" stroke="rgba(0,0,0,0)" stroke-width="1"/>
    <path id="Path_345" data-name="Path 345" d="M192.414,240.918a.4.4,0,0,0,.405.405h5.4a.405.405,0,1,0,0-.81h-5.4A.4.4,0,0,0,192.414,240.918Z" transform="translate(-182.657 -217.151)" stroke="rgba(0,0,0,0)" stroke-width="1"/>
    <path id="Path_346" data-name="Path 346" d="M124.862,154.349a1.256,1.256,0,1,0,1.3,1.255A1.278,1.278,0,0,0,124.862,154.349Zm0,1.7a.447.447,0,1,1,.487-.445.468.468,0,0,1-.487.445Z" transform="translate(-117.3 -135.356)" stroke="rgba(0,0,0,0)" stroke-width="1"/>
    <path id="Path_347" data-name="Path 347" d="M124.862,293.207a1.256,1.256,0,1,0,1.3,1.255A1.278,1.278,0,0,0,124.862,293.207Zm0,1.7a.447.447,0,1,1,.487-.445A.467.467,0,0,1,124.862,294.907Z" transform="translate(-117.3 -267.173)" stroke="rgba(0,0,0,0)" stroke-width="1"/>
    <path id="Path_348" data-name="Path 348" d="M198.219,310.4h-5.4a.405.405,0,1,0,0,.81h5.4a.405.405,0,1,0,0-.81Z" transform="translate(-182.657 -283.497)" stroke="rgba(0,0,0,0)" stroke-width="1"/>
    <path id="Path_349" data-name="Path 349" d="M323.574,118.4h-5.4a.405.405,0,0,0,0,.81h5.4a.405.405,0,0,0,0-.81Z" transform="translate(-301.655 -101.232)" stroke="rgba(0,0,0,0)" stroke-width="1"/>
    <path id="Path_350" data-name="Path 350" d="M371.823,70.964v-5.4a.405.405,0,0,0-.81,0v5.4a.405.405,0,0,0,.81,0Z" transform="translate(-352.199 -50.689)" stroke="rgba(0,0,0,0)" stroke-width="1"/>
  </g>
</svg>
