<svg xmlns="http://www.w3.org/2000/svg" width="25" height="23.913" viewBox="0 0 25 23.913">
  <g id="logout" transform="translate(0 -0.332)">
    <path id="Path_396" data-name="Path 396" d="M166.212,220.66h-16.05a.83.83,0,1,1,0-1.66h16.05a.83.83,0,0,1,0,1.66Zm0,0" transform="translate(-142.042 -207.542)" fill="#ff3c3c"/>
    <path id="Path_397" data-name="Path 397" d="M154.6,144.168a.824.824,0,0,1-.587-.243l-4.427-4.427a.831.831,0,0,1,0-1.174l4.427-4.427a.83.83,0,0,1,1.174,1.174l-3.841,3.841,3.841,3.841a.83.83,0,0,1-.588,1.417Zm0,0" transform="translate(-141.775 -126.622)" fill="#ff3c3c"/>
    <path id="Path_398" data-name="Path 398" d="M11.939,24.245A11.957,11.957,0,1,1,23.051,7.915a.814.814,0,1,1-1.515.6,10.314,10.314,0,1,0-9.6,14.1,10.259,10.259,0,0,0,9.6-6.548.814.814,0,1,1,1.515.6A11.878,11.878,0,0,1,11.939,24.245Zm0,0" fill="#ff3c3c"/>
  </g>
</svg>
