<svg xmlns="http://www.w3.org/2000/svg" width="25" height="19.5" viewBox="0 0 25 19.5">
  <g id="Group_158" data-name="Group 158" transform="translate(139.949 36.11)">
    <path id="Path_325" data-name="Path 325" d="M89.39,40.138a4.061,4.061,0,1,1,4.061-4.061A4.066,4.066,0,0,1,89.39,40.138Zm0-6.9a2.843,2.843,0,1,0,2.843,2.843A2.846,2.846,0,0,0,89.39,33.233Z" transform="translate(-216.798 -65.531)"/>
    <path id="Path_326" data-name="Path 326" d="M13.826,295.317H.6a.605.605,0,0,1-.6-.609v-2.843a3.837,3.837,0,0,1,3.807-3.858H10.62a3.837,3.837,0,0,1,3.807,3.858v2.843A.605.605,0,0,1,13.826,295.317ZM1.2,294.1H13.225v-2.234a2.626,2.626,0,0,0-2.6-2.64H3.807a2.626,2.626,0,0,0-2.6,2.64Z" transform="translate(-134.62 -311.927)"/>
    <path id="Path_327" data-name="Path 327" d="M297.147-29.918a3.1,3.1,0,0,1-3.1-3.1,3.1,3.1,0,0,1,3.1-3.1,3.1,3.1,0,0,1,3.1,3.1A3.1,3.1,0,0,1,297.147-29.918Zm0-5.263a2.17,2.17,0,0,0-2.167,2.167,2.17,2.17,0,0,0,2.167,2.167,2.17,2.17,0,0,0,2.167-2.167A2.17,2.17,0,0,0,297.147-35.181Z" transform="translate(-417.669 0)"/>
    <g id="Group_156" data-name="Group 156" transform="translate(-123.418 -28.76)">
      <path id="Path_328" data-name="Path 328" d="M304.814,159.029h-5.252a4.359,4.359,0,0,1-.276.947,2.015,2.015,0,0,1,.265-.018h5.263a2.015,2.015,0,0,1,2.012,2.012v1.7h-6.867a3.869,3.869,0,0,1,1.445.929h5.886a.465.465,0,0,0,.464-.464V161.97A2.945,2.945,0,0,0,304.814,159.029Z" transform="translate(-299.286 -159.029)"/>
    </g>
    <path id="Path_329" data-name="Path 329" d="M-71.807-29.918a3.1,3.1,0,0,0,3.1-3.1,3.1,3.1,0,0,0-3.1-3.1,3.1,3.1,0,0,0-3.1,3.1A3.1,3.1,0,0,0-71.807-29.918Zm0-5.263a2.17,2.17,0,0,1,2.167,2.167,2.17,2.17,0,0,1-2.167,2.167,2.17,2.17,0,0,1-2.167-2.167A2.17,2.17,0,0,1-71.807-35.181Z" transform="translate(-62.569 0)"/>
    <g id="Group_157" data-name="Group 157" transform="translate(-139.949 -28.76)">
      <path id="Path_330" data-name="Path 330" d="M-137.008,159.029h5.252a4.359,4.359,0,0,0,.276.947,2.015,2.015,0,0,0-.265-.018h-5.263a2.015,2.015,0,0,0-2.012,2.012v1.7h6.867a3.868,3.868,0,0,0-1.445.929h-5.886a.465.465,0,0,1-.464-.464V161.97A2.944,2.944,0,0,1-137.008,159.029Z" transform="translate(139.949 -159.029)"/>
    </g>
  </g>
</svg>
