<svg xmlns="http://www.w3.org/2000/svg" width="17.858" height="22" viewBox="0 0 17.858 22">
  <g id="rejected" transform="translate(-48.2)">
    <path id="Path_472" data-name="Path 472" d="M65.869,5.712,60.346.189A.644.644,0,0,0,59.89,0H50.57A2.373,2.373,0,0,0,48.2,2.37V19.63A2.373,2.373,0,0,0,50.57,22H63.687a2.373,2.373,0,0,0,2.37-2.37V6.167a.645.645,0,0,0-.189-.456ZM60.535,2.2l3.322,3.322H61.616a1.083,1.083,0,0,1-1.081-1.081Zm3.152,18.51H50.57a1.083,1.083,0,0,1-1.081-1.081V2.37A1.083,1.083,0,0,1,50.57,1.289h8.675V4.442a2.373,2.373,0,0,0,2.37,2.37h3.152V19.63A1.083,1.083,0,0,1,63.687,20.711Z"/>
    <path id="Path_473" data-name="Path 473" d="M134.01,192.8a5.477,5.477,0,1,0,5.477,5.477A5.483,5.483,0,0,0,134.01,192.8Zm0,9.665a4.188,4.188,0,1,1,4.188-4.188A4.193,4.193,0,0,1,134.01,202.465Z" transform="translate(-76.881 -184.516)"/>
    <path id="Path_474" data-name="Path 474" d="M210.946,271.373a.645.645,0,0,0-.911,0l-1.009,1.009-1.009-1.009a.645.645,0,0,0-.911.911l1.009,1.009-1.009,1.009a.645.645,0,0,0,.911.912l1.009-1.009,1.009,1.009a.645.645,0,0,0,.911-.912l-1.009-1.009,1.009-1.009A.644.644,0,0,0,210.946,271.373Z" transform="translate(-151.897 -259.532)"/>
  </g>
</svg>
