<svg xmlns="http://www.w3.org/2000/svg" width="25" height="23.802" viewBox="0 0 25 23.802">
  <g id="bill" transform="translate(0 -0.391)">
    <path id="Path_107" data-name="Path 107" d="M347.532,41.082l.033,0a.407.407,0,0,0,.056,0,.911.911,0,0,1,.893.91.408.408,0,1,0,.815,0,1.729,1.729,0,0,0-1.357-1.686v-.392a.408.408,0,0,0-.815,0v.41a1.726,1.726,0,0,0,.446,3.393.911.911,0,1,1-.911.911.408.408,0,1,0-.815,0,1.729,1.729,0,0,0,1.28,1.667v.447a.408.408,0,0,0,.815,0v-.428A1.726,1.726,0,0,0,347.6,42.9a.91.91,0,0,1-.071-1.818Zm0,0" transform="translate(-328.383 -37.12)"/>
    <path id="Path_108" data-name="Path 108" d="M19.25.391a5.811,5.811,0,0,0-5.415,3.8H3.782a.424.424,0,0,0-.405.423l-.1,14.209H.416A.4.4,0,0,0,0,19.212v1.8a3.182,3.182,0,0,0,3.038,3.169v.009H15.543V24.18c.1,0,.143.012.207.012h.009a3.181,3.181,0,0,0,3.176-3.181V11.894c.1.006.208.009.313.009a5.756,5.756,0,0,0,0-11.512ZM3.192,23.382h0A2.382,2.382,0,0,1,.81,21.011V19.636H12.556V21a3.177,3.177,0,0,0,.938,2.251c.043.043.1.075.14.126Zm14.934-2.372a2.371,2.371,0,0,1-2.367,2.372h-.008a2.389,2.389,0,0,1-2.385-2.377V19.212a.374.374,0,0,0-.387-.386H4.091L4.184,5H13.61A6.086,6.086,0,0,0,13.5,6.129a5.712,5.712,0,0,0,.489,2.318H10.162a.405.405,0,0,0,0,.81h4.265a5.716,5.716,0,0,0,3.7,2.537Zm1.124-9.917A4.941,4.941,0,1,1,24.19,6.153,4.94,4.94,0,0,1,19.25,11.093Zm0,0"/>
    <path id="Path_109" data-name="Path 109" d="M125.066,212.746a1.264,1.264,0,1,0,1.3,1.263A1.286,1.286,0,0,0,125.066,212.746Zm0,1.711a.45.45,0,1,1,.49-.448A.471.471,0,0,1,125.066,214.458Zm0,0" transform="translate(-117.5 -201.612)"/>
    <path id="Path_110" data-name="Path 110" d="M192.719,229.912a.408.408,0,0,0,.408.408h5.435a.408.408,0,1,0,0-.815h-5.435A.408.408,0,0,0,192.719,229.912Zm0,0" transform="translate(-182.982 -217.516)"/>
    <path id="Path_111" data-name="Path 111" d="M125.066,143.2a1.264,1.264,0,1,0,1.3,1.264A1.286,1.286,0,0,0,125.066,143.2Zm0,1.712a.45.45,0,1,1,.49-.448.471.471,0,0,1-.49.448Zm0,0" transform="translate(-117.5 -135.587)"/>
    <path id="Path_112" data-name="Path 112" d="M125.066,282.281a1.264,1.264,0,1,0,1.3,1.263A1.286,1.286,0,0,0,125.066,282.281Zm0,1.711a.45.45,0,1,1,.49-.448A.47.47,0,0,1,125.066,283.993Zm0,0" transform="translate(-117.5 -267.629)"/>
    <path id="Path_113" data-name="Path 113" d="M198.561,299.5h-5.435a.408.408,0,1,0,0,.815h5.435a.408.408,0,1,0,0-.815Zm0,0" transform="translate(-182.982 -283.973)"/>
  </g>
</svg>
