<svg xmlns="http://www.w3.org/2000/svg" width="30" height="30" viewBox="0 0 30 30">
  <g id="Group_236" data-name="Group 236" transform="translate(-7985 -1854)">
    <circle id="Ellipse_6" data-name="Ellipse 6" cx="15" cy="15" r="15" transform="translate(7985 1854)" fill="#e4fbf8"/>
    <path id="file" d="M5.144,14.414A.568.568,0,0,1,4.6,15H2.189A2.273,2.273,0,0,1,0,12.656V2.344A2.273,2.273,0,0,1,2.189,0H8.918a2.273,2.273,0,0,1,2.189,2.344v5.6a.549.549,0,1,1-1.095,0v-5.6A1.137,1.137,0,0,0,8.918,1.172H2.189A1.137,1.137,0,0,0,1.095,2.344V12.656a1.137,1.137,0,0,0,1.095,1.172H4.6A.568.568,0,0,1,5.144,14.414ZM8.37,3.516H2.733a.587.587,0,0,0,0,1.172H8.37a.587.587,0,0,0,0-1.172Zm.547,2.93a.568.568,0,0,0-.547-.586H2.733a.587.587,0,0,0,0,1.172H8.37A.568.568,0,0,0,8.918,6.445ZM2.733,8.2a.587.587,0,0,0,0,1.172H5.61a.587.587,0,0,0,0-1.172ZM12.46,12.5c-.019.029-.085.129-.126.185a8.033,8.033,0,0,1-1.209,1.335A3.616,3.616,0,0,1,8.784,15a3.616,3.616,0,0,1-2.341-.986A8.031,8.031,0,0,1,5.233,12.68c-.041-.055-.107-.155-.126-.185a.62.62,0,0,1,0-.674c.019-.029.085-.129.126-.185A8.032,8.032,0,0,1,6.443,10.3a3.616,3.616,0,0,1,2.341-.986,3.616,3.616,0,0,1,2.341.986,8.031,8.031,0,0,1,1.209,1.335c.041.055.107.155.126.185A.62.62,0,0,1,12.46,12.5Zm-1.142-.337a3.521,3.521,0,0,0-2.535-1.67,3.521,3.521,0,0,0-2.535,1.67,3.521,3.521,0,0,0,2.535,1.67A3.521,3.521,0,0,0,11.319,12.158ZM8.811,11.045a1.116,1.116,0,1,0,1.04,1.113A1.078,1.078,0,0,0,8.811,11.045Zm0,0" transform="translate(7994.276 1862)" fill="#05ccce"/>
  </g>
</svg>
