<svg xmlns="http://www.w3.org/2000/svg" width="38" height="38" viewBox="0 0 38 38">
  <g id="Group_111" data-name="Group 111" transform="translate(-1201 -564)">
    <circle id="Ellipse_6" data-name="Ellipse 6" cx="19" cy="19" r="19" transform="translate(1201 564)" fill="#fff7eb"/>
    <g id="edit" transform="translate(1210.595 573.765)">
      <path id="Path_307" data-name="Path 307" d="M125.5,1.111a2.9,2.9,0,0,0-4.1,0l-11.5,11.5a.645.645,0,0,0-.165.284l-1.513,5.461a.645.645,0,0,0,.793.794l5.461-1.513a.645.645,0,0,0,.284-.165l11.5-11.5a2.9,2.9,0,0,0,0-4.1ZM111.3,13.033l9.414-9.414,3.036,3.036-9.414,9.414Zm-.606,1.217,2.426,2.426-3.355.93Zm14.653-9.191-.684.684-3.036-3.036.684-.684a1.612,1.612,0,0,1,2.279,0l.757.757A1.614,1.614,0,0,1,125.342,5.059Zm0,0" transform="translate(-108.19 -0.261)" fill="#ffac2e"/>
    </g>
  </g>
</svg>
