<svg id="edit" xmlns="http://www.w3.org/2000/svg" width="14.999" height="15" viewBox="0 0 14.999 15">
  <path id="Path_307" data-name="Path 307" d="M121.916.935a2.3,2.3,0,0,0-3.254,0l-9.122,9.122a.511.511,0,0,0-.131.225l-1.2,4.331a.511.511,0,0,0,.629.629l4.331-1.2a.511.511,0,0,0,.225-.131l9.122-9.122a2.3,2.3,0,0,0,0-3.254Zm-11.262,9.455,7.466-7.466,2.408,2.408L113.061,12.8Zm-.481.965,1.924,1.924-2.661.737Zm11.62-7.289-.542.542L118.842,2.2l.542-.542a1.278,1.278,0,0,1,1.808,0l.6.6A1.28,1.28,0,0,1,121.793,4.066Zm0,0" transform="translate(-108.19 -0.261)" fill="#04ccce"/>
</svg>
