<svg xmlns="http://www.w3.org/2000/svg" width="30.172" height="25.404" viewBox="0 0 30.172 25.404">
  <g id="Group_176" data-name="Group 176" transform="translate(0 -86.757)">
    <path id="Path_337" data-name="Path 337" d="M125.213,223.782a1.6,1.6,0,1,0,1.647,1.595A1.623,1.623,0,0,0,125.213,223.782Zm0,2.16a.568.568,0,1,1,.618-.566A.594.594,0,0,1,125.213,225.942Z" transform="translate(-115.606 -128.198)"/>
    <path id="Path_338" data-name="Path 338" d="M192.414,241.028c0,.284.142.515.318.515h4.234c.175,0,.318-.23.318-.515s-.142-.515-.318-.515h-4.234C192.556,240.513,192.414,240.743,192.414,241.028Z" transform="translate(-180.019 -143.852)"/>
    <path id="Path_339" data-name="Path 339" d="M125.213,154.349a1.6,1.6,0,1,0,1.647,1.595A1.623,1.623,0,0,0,125.213,154.349Zm0,2.16a.568.568,0,1,1,.618-.566.594.594,0,0,1-.618.566Z" transform="translate(-115.606 -63.238)"/>
    <path id="Path_340" data-name="Path 340" d="M192.414,172.4a.514.514,0,0,0,.515.515h6.86a.515.515,0,1,0,0-1.029h-6.86A.514.514,0,0,0,192.414,172.4Z" transform="translate(-180.019 -79.645)"/>
    <path id="Path_341" data-name="Path 341" d="M284.638,234.02a1.929,1.929,0,0,0-2.729,0l-7.65,7.65a.429.429,0,0,0-.11.189l-1.006,3.632a.429.429,0,0,0,.528.528l3.632-1.006a.428.428,0,0,0,.189-.11l7.65-7.65a1.932,1.932,0,0,0,0-2.729Zm-9.444,7.928,6.261-6.261,2.019,2.019-6.261,6.261Zm-.4.809,1.613,1.613-2.231.618Zm9.744-6.112-.455.455-2.019-2.019.455-.455a1.072,1.072,0,0,1,1.516,0l.5.5A1.073,1.073,0,0,1,284.535,236.645Z" transform="translate(-255.534 -137.248)"/>
    <path id="Path_342" data-name="Path 342" d="M23.025,107.119v1a3.012,3.012,0,0,1-3.007,3.013h-.01a3.035,3.035,0,0,1-3.029-3.02v-2.278a.475.475,0,0,0-.491-.49H5.2l.118-17.558h17.71v11.9l1.029-1.2V87.236a.515.515,0,0,0-.534-.479H4.8a.538.538,0,0,0-.514.538l-.122,18.049H.528a.506.506,0,0,0-.528.49v2.29a4.042,4.042,0,0,0,3.859,4.025v.011H19.745v-.015c.129,0,.182.015.263.015h.011a4.041,4.041,0,0,0,4.035-4.041V106.2Zm-18.97,4.014h0a3.026,3.026,0,0,1-3.022-3.013v-1.747H15.95v1.739a4.036,4.036,0,0,0,1.191,2.86c.054.054.121.1.178.16Z"/>
  </g>
</svg>
