<svg xmlns="http://www.w3.org/2000/svg" width="31.51" height="30" viewBox="0 0 31.51 30">
  <g id="bill" transform="translate(0 -0.391)">
    <path id="Path_107" data-name="Path 107" d="M348.1,41.623l.044,0a.546.546,0,0,0,.076-.006,1.223,1.223,0,0,1,1.2,1.221.547.547,0,1,0,1.095,0,2.321,2.321,0,0,0-1.821-2.263v-.526a.547.547,0,1,0-1.095,0V40.6a2.317,2.317,0,0,0,.6,4.556,1.223,1.223,0,1,1-1.223,1.223.547.547,0,0,0-1.095,0,2.321,2.321,0,0,0,1.719,2.238v.6a.547.547,0,0,0,1.095,0v-.575a2.317,2.317,0,0,0-.5-4.58,1.222,1.222,0,0,1-.1-2.441Zm0,0" transform="translate(-324.058 -36.437)"/>
    <path id="Path_108" data-name="Path 108" d="M24.263.391a7.325,7.325,0,0,0-6.825,4.793H4.767a.534.534,0,0,0-.511.533L4.136,23.626H.524A.5.5,0,0,0,0,24.113v2.273a4.01,4.01,0,0,0,3.829,3.994v.011H19.591v-.015c.128,0,.18.015.261.015h.011a4.01,4.01,0,0,0,4-4.01V14.89c.128.007.263.011.395.011a7.255,7.255,0,0,0,0-14.51ZM4.023,29.37h0a3,3,0,0,1-3-2.989V24.647h14.8v1.726a4,4,0,0,0,1.182,2.838c.054.054.12.095.176.159ZM22.846,26.38a2.989,2.989,0,0,1-2.983,2.989h-.01a3.011,3.011,0,0,1-3.006-3V24.113a.471.471,0,0,0-.487-.487H5.157L5.274,6.2h11.88a7.671,7.671,0,0,0-.14,1.418,7.2,7.2,0,0,0,.616,2.922H12.809a.511.511,0,0,0,0,1.021h5.376a7.2,7.2,0,0,0,4.661,3.2Zm1.417-12.5A6.227,6.227,0,1,1,30.49,7.653,6.227,6.227,0,0,1,24.263,13.88Zm0,0" transform="translate(0 0)"/>
    <path id="Path_109" data-name="Path 109" d="M125.513,212.746a1.7,1.7,0,1,0,1.752,1.7A1.726,1.726,0,0,0,125.513,212.746Zm0,2.3a.6.6,0,1,1,.657-.6A.632.632,0,0,1,125.513,215.044Zm0,0" transform="translate(-115.93 -198.919)"/>
    <path id="Path_110" data-name="Path 110" d="M192.719,230.051a.547.547,0,0,0,.547.547h7.3a.547.547,0,1,0,0-1.095h-7.3A.547.547,0,0,0,192.719,230.051Zm0,0" transform="translate(-180.713 -214.53)"/>
    <path id="Path_111" data-name="Path 111" d="M125.513,143.2a1.7,1.7,0,1,0,1.752,1.7A1.727,1.727,0,0,0,125.513,143.2Zm0,2.3a.6.6,0,1,1,.657-.6.632.632,0,0,1-.657.6Zm0,0" transform="translate(-115.93 -133.777)"/>
    <path id="Path_112" data-name="Path 112" d="M125.513,282.281a1.7,1.7,0,1,0,1.752,1.7A1.726,1.726,0,0,0,125.513,282.281Zm0,2.3a.6.6,0,1,1,.657-.6A.632.632,0,0,1,125.513,284.579Zm0,0" transform="translate(-115.93 -264.055)"/>
    <path id="Path_113" data-name="Path 113" d="M200.563,299.5h-7.3a.547.547,0,1,0,0,1.095h7.3a.547.547,0,1,0,0-1.095Zm0,0" transform="translate(-180.713 -280.074)"/>
  </g>
</svg>
