<svg xmlns="http://www.w3.org/2000/svg" width="38.46" height="30" viewBox="0 0 38.46 30">
  <g id="Group_161" data-name="Group 161" transform="translate(139.949 36.11)">
    <path id="Path_331" data-name="Path 331" d="M91.529,44.415a6.2,6.2,0,1,1,6.2-6.2A6.207,6.207,0,0,1,91.529,44.415Zm0-10.54a4.34,4.34,0,1,0,4.34,4.34A4.345,4.345,0,0,0,91.529,33.875Z" transform="translate(-212.183 -64.165)"/>
    <path id="Path_332" data-name="Path 332" d="M21.39,299.167H.93a.93.93,0,0,1-.93-.93V293.9a5.9,5.9,0,0,1,5.89-5.89H16.43a5.9,5.9,0,0,1,5.89,5.89v4.34A.93.93,0,0,1,21.39,299.167Zm-19.53-1.86h18.6V293.9a4.035,4.035,0,0,0-4.03-4.03H5.89a4.035,4.035,0,0,0-4.03,4.03Z" transform="translate(-131.814 -305.277)"/>
    <path id="Path_333" data-name="Path 333" d="M298.777-26.658a4.731,4.731,0,0,1-4.726-4.726,4.732,4.732,0,0,1,4.726-4.726,4.732,4.732,0,0,1,4.726,4.726A4.731,4.731,0,0,1,298.777-26.658Zm0-8.034a3.312,3.312,0,0,0-3.308,3.308,3.312,3.312,0,0,0,3.308,3.308,3.312,3.312,0,0,0,3.308-3.308A3.312,3.312,0,0,0,298.777-34.692Z" transform="translate(-408.773 0)"/>
    <g id="Group_159" data-name="Group 159" transform="translate(-114.418 -24.767)">
      <path id="Path_334" data-name="Path 334" d="M307.725,159.029h-8.018a6.652,6.652,0,0,1-.421,1.445,3.077,3.077,0,0,1,.4-.027h8.035a3.076,3.076,0,0,1,3.072,3.072v2.6H300.314a5.9,5.9,0,0,1,2.206,1.418h8.986a.709.709,0,0,0,.709-.709v-3.308A4.5,4.5,0,0,0,307.725,159.029Z" transform="translate(-299.286 -159.029)"/>
    </g>
    <path id="Path_335" data-name="Path 335" d="M-70.177-26.658a4.731,4.731,0,0,0,4.726-4.726,4.732,4.732,0,0,0-4.726-4.726A4.732,4.732,0,0,0-74.9-31.384,4.731,4.731,0,0,0-70.177-26.658Zm0-8.034a3.312,3.312,0,0,1,3.308,3.308,3.312,3.312,0,0,1-3.308,3.308,3.312,3.312,0,0,1-3.308-3.308A3.312,3.312,0,0,1-70.177-34.692Z" transform="translate(-61.265 0)"/>
    <g id="Group_160" data-name="Group 160" transform="translate(-139.949 -24.767)">
      <path id="Path_336" data-name="Path 336" d="M-135.459,159.029h8.018a6.653,6.653,0,0,0,.421,1.445,3.076,3.076,0,0,0-.4-.027h-8.035a3.076,3.076,0,0,0-3.072,3.072v2.6h10.484a5.9,5.9,0,0,0-2.206,1.418h-8.986a.709.709,0,0,1-.709-.709v-3.308A4.5,4.5,0,0,1-135.459,159.029Z" transform="translate(139.949 -159.029)"/>
    </g>
  </g>
</svg>
