<svg xmlns="http://www.w3.org/2000/svg" width="27.972" height="28" viewBox="0 0 27.972 28">
  <g id="Group_177" data-name="Group 177" transform="translate(-720.607 -50.768)">
    <path id="Path_385" data-name="Path 385" d="M803.591,93.7c.026,0,.051,0,.077,0a.916.916,0,0,0,.131-.01,2.188,2.188,0,0,1,2.08,2.239.951.951,0,1,0,1.9,0,4.208,4.208,0,0,0-3.161-4.149v-.964a.951.951,0,1,0-1.9,0v1.01a4.249,4.249,0,0,0-2.949,4.657,4.1,4.1,0,0,0,3.988,3.694,2.245,2.245,0,1,1-2.122,2.242.951.951,0,1,0-1.9,0,4.224,4.224,0,0,0,2.983,4.1v1.1a.951.951,0,1,0,1.9,0v-1.053a4.229,4.229,0,0,0,3.138-4.606,4.109,4.109,0,0,0-4-3.79,2.178,2.178,0,0,1-2.121-2.153,2.2,2.2,0,0,1,1.955-2.322Z" transform="translate(-69.22 -34.408)"/>
    <path id="Path_386" data-name="Path 386" d="M734.594,50.768a14.134,14.134,0,0,0-13.17,9.25,14.844,14.844,0,0,0-.817,4.706,13.894,13.894,0,0,0,1.189,5.638l1.069,1.97a13.9,13.9,0,0,0,8.994,6.169l1.97.246c.246.013.507.021.762.021a14,14,0,0,0,0-28Zm0,26.03A12.016,12.016,0,1,1,746.61,64.782,12.016,12.016,0,0,1,734.594,76.8Z" transform="translate(0)"/>
  </g>
</svg>
