<svg xmlns="http://www.w3.org/2000/svg" width="305.458" height="80.263" viewBox="0 0 305.458 80.263">
  <g id="Group_175" data-name="Group 175" transform="translate(-381.695 -88.426)">
    <g id="Group_173" data-name="Group 173" transform="translate(381.78 88.426)">
      <g id="Group_171" data-name="Group 171">
        <path id="Path_351" data-name="Path 351" d="M463.243,114.434v-4.962H475.96v11.639a16.42,16.42,0,0,1-5.363,3.178,19.7,19.7,0,0,1-7.161,1.37,15.985,15.985,0,0,1-7.991-1.921,12.423,12.423,0,0,1-5.141-5.517,17.93,17.93,0,0,1-1.715-7.8,16.874,16.874,0,0,1,1.935-8.114,12.73,12.73,0,0,1,5.613-5.448,15.148,15.148,0,0,1,6.995-1.452c3.622,0,6.471.76,8.516,2.28a10.346,10.346,0,0,1,3.926,6.346l-5.834,1.093a6.068,6.068,0,0,0-2.35-3.4,6.914,6.914,0,0,0-4.259-1.244,8,8,0,0,0-6.166,2.447c-1.52,1.617-2.266,4.051-2.266,7.271,0,3.457.746,6.055,2.295,7.8a7.8,7.8,0,0,0,6.081,2.585,10.238,10.238,0,0,0,3.734-.72,13.13,13.13,0,0,0,3.207-1.755v-3.678h-6.773" transform="translate(-372.032 -87.408)"/>
        <path id="Path_352" data-name="Path 352" d="M483.174,110.508c0,3.318.747,5.82,2.269,7.521a7.928,7.928,0,0,0,11.639.029c1.52-1.7,2.267-4.231,2.267-7.619,0-3.358-.747-5.847-2.211-7.492a8.179,8.179,0,0,0-11.724.029c-1.52,1.673-2.24,4.188-2.24,7.533m-6.11.209a18.759,18.759,0,0,1,1.328-7.508,13.409,13.409,0,0,1,2.736-4.008,10.964,10.964,0,0,1,3.789-2.627,15.666,15.666,0,0,1,6.3-1.162,13.8,13.8,0,0,1,10.34,4.008c2.571,2.67,3.871,6.389,3.871,11.157,0,4.716-1.3,8.4-3.843,11.073a13.631,13.631,0,0,1-10.286,4.01c-4.367,0-7.824-1.328-10.4-3.981s-3.844-6.3-3.844-10.962" transform="translate(-367.883 -87.408)"/>
        <path id="Path_353" data-name="Path 353" d="M506.892,125.056V96.039h5.917v24.054h14.626v4.962Z" transform="translate(-363.536 -87.317)"/>
        <path id="Path_354" data-name="Path 354" d="M535.322,100.8v19.326h4.426a16.237,16.237,0,0,0,3.538-.276,5.391,5.391,0,0,0,2.377-1.217,6.135,6.135,0,0,0,1.548-2.82,18.435,18.435,0,0,0,.608-5.351,16.883,16.883,0,0,0-.608-5.2,6.816,6.816,0,0,0-1.659-2.82,5.84,5.84,0,0,0-2.737-1.382,27.7,27.7,0,0,0-4.837-.264Zm-5.915-4.977h10.781a20.921,20.921,0,0,1,5.558.566,9.931,9.931,0,0,1,4.424,2.7,12.657,12.657,0,0,1,2.765,4.742,21.57,21.57,0,0,1,.968,6.912,18.888,18.888,0,0,1-.913,6.22,12.657,12.657,0,0,1-3.122,5.171,10.4,10.4,0,0,1-4.121,2.336,17.853,17.853,0,0,1-5.226.621H529.407V95.822" transform="translate(-360.255 -87.348)"/>
        <path id="Path_355" data-name="Path 355" d="M561.964,112.287v7.838h5.447a26.05,26.05,0,0,0,4.065-.18,3.546,3.546,0,0,0,2.129-1.174,3.481,3.481,0,0,0,.857-2.476,3.749,3.749,0,0,0-.663-2.252,3.452,3.452,0,0,0-1.825-1.328,19.583,19.583,0,0,0-5.254-.427Zm0-11.6v6.732h3.871c2.295,0,3.7-.026,4.285-.1a3.925,3.925,0,0,0,2.377-1.037,3.534,3.534,0,0,0,.111-4.479,3.4,3.4,0,0,0-2.212-1.023c-.608-.069-2.266-.1-5.031-.1Zm-5.915-4.866h11.694a33.709,33.709,0,0,1,5.171.29,7.571,7.571,0,0,1,3.042,1.2,7.3,7.3,0,0,1,2.238,2.431,6.562,6.562,0,0,1,.913,3.429,6.98,6.98,0,0,1-1.107,3.76,6.8,6.8,0,0,1-2.985,2.558,7.64,7.64,0,0,1,4.091,2.667,6.978,6.978,0,0,1,1.438,4.411,8.528,8.528,0,0,1-.941,3.9,7.972,7.972,0,0,1-2.516,3.028,8.328,8.328,0,0,1-3.98,1.382c-.968.11-3.345.18-7.106.206h-9.953V95.822" transform="translate(-356.373 -87.348)"/>
        <path id="Path_356" data-name="Path 356" d="M582.69,125.087V95.822h21.7v4.963H588.606v6.469H603.26v4.963H588.606v7.907h16.312v4.962Z" transform="translate(-352.491 -87.348)"/>
        <path id="Path_357" data-name="Path 357" d="M607.5,125.056V96.039h5.917v24.054h14.654v4.962Z" transform="translate(-348.876 -87.317)"/>
        <path id="Path_358" data-name="Path 358" d="M630.181,125.056V96.039H636.1v24.054h14.627v4.962Z" transform="translate(-345.571 -87.317)"/>
        <rect id="Rectangle_31" data-name="Rectangle 31" width="228.817" height="1.091" transform="translate(76.557 46.767)"/>
        <path id="Path_359" data-name="Path 359" d="M413.729,144.842c-.028,0-.083,0-.083-.014a.167.167,0,0,1,.194,0,.181.181,0,0,1-.084.014h.111v-.014a7.182,7.182,0,0,0,6.221-7.217h18.663V123.319c-.36.026-.719.026-1.107.04a10.964,10.964,0,0,1-2.986-.442,6.018,6.018,0,0,1-4.424-3.98,4.449,4.449,0,0,1-.138-.581,23.081,23.081,0,0,1-.443-3.056c-.11-2-.276-4-.525-5.985a19.532,19.532,0,0,0-2.185-7.174,11.229,11.229,0,0,0-8.986-5.793V92.269h23.115v55.588H386.413V92.269H409.5v4.079a11.265,11.265,0,0,0-8.958,5.793,20.136,20.136,0,0,0-2.212,7.174c-.222,1.99-.387,3.981-.5,5.985a19.149,19.149,0,0,1-.443,3.056,4.117,4.117,0,0,1-.139.581,6.01,6.01,0,0,1-4.451,3.98,10.749,10.749,0,0,1-2.958.442c-.386-.014-.746-.014-1.1-.04v14.293H407.4a5.82,5.82,0,0,0,.276,2.074,6.538,6.538,0,0,0,5.971,5.143s0,.014-.029.014Zm0-4.175a2.317,2.317,0,0,1-1.464-.982,3.214,3.214,0,0,1-.416-1h3.788a3.132,3.132,0,0,1-.415,1,2.378,2.378,0,0,1-1.493.982m-20.57-7.617v-6.194a9.161,9.161,0,0,0,6.968-4,9.023,9.023,0,0,0,1.216-2.68,18.36,18.36,0,0,0,.637-3.444c.166-1.769.3-3.525.36-5.294a27.908,27.908,0,0,1,.8-5,12.22,12.22,0,0,1,1.188-2.766,7.455,7.455,0,0,1,3.54-3.027,11.389,11.389,0,0,1,4.147-.732l1.161.014v-11.5H381.769v63.979h63.949V88.426H414.281v11.5l1.19-.014a11.5,11.5,0,0,1,4.148.732,7.259,7.259,0,0,1,3.51,3.027,10.206,10.206,0,0,1,1.188,2.766,25.882,25.882,0,0,1,.831,5c.082,1.769.194,3.525.359,5.294a16.539,16.539,0,0,0,.636,3.444,9.955,9.955,0,0,0,1.189,2.68,9.163,9.163,0,0,0,6.967,4l.029,4.106v2.087l-20.6-.042-20.57.042" transform="translate(-381.769 -88.426)"/>
        <path id="Path_360" data-name="Path 360" d="M386,151.431v-1.7h3.7v3.5a8.32,8.32,0,0,1-1.879,1.051,6.4,6.4,0,0,1-1.963.276,4.529,4.529,0,0,1-2.268-.5,3.475,3.475,0,0,1-1.353-1.494,5.288,5.288,0,0,1-.47-2.265,4.815,4.815,0,0,1,.525-2.337,3.566,3.566,0,0,1,1.519-1.508,4.776,4.776,0,0,1,2.156-.4,5.383,5.383,0,0,1,1.936.25,2.38,2.38,0,0,1,1.052.76,3.539,3.539,0,0,1,.636,1.313l-2.323.442a1.22,1.22,0,0,0-.5-.72,1.456,1.456,0,0,0-.886-.249,1.581,1.581,0,0,0-1.244.581,2.965,2.965,0,0,0-.47,1.839,3.078,3.078,0,0,0,.47,1.906,1.685,1.685,0,0,0,1.327.568,2.712,2.712,0,0,0,.8-.126,5.605,5.605,0,0,0,.828-.414v-.773H386" transform="translate(-381.769 -80.029)"/>
        <path id="Path_361" data-name="Path 361" d="M392.091,150.312a2.985,2.985,0,0,0,.415,1.8,1.54,1.54,0,0,0,1.217.552,1.438,1.438,0,0,0,1.189-.538,3.041,3.041,0,0,0,.443-1.923,2.739,2.739,0,0,0-.443-1.687,1.491,1.491,0,0,0-1.217-.538,1.512,1.512,0,0,0-1.189.538,3.017,3.017,0,0,0-.415,1.8m-2.432,0a4.348,4.348,0,0,1,1.079-3.139,3.949,3.949,0,0,1,2.985-1.119,4.043,4.043,0,0,1,2.986,1.092,4.372,4.372,0,0,1,1.051,3.1,5.257,5.257,0,0,1-.47,2.35,3.364,3.364,0,0,1-1.327,1.452,4.2,4.2,0,0,1-2.185.511,4.782,4.782,0,0,1-2.156-.442,3.37,3.37,0,0,1-1.408-1.412,4.79,4.79,0,0,1-.555-2.389" transform="translate(-380.619 -80.029)"/>
        <path id="Path_362" data-name="Path 362" d="M397.864,146.174h2.406v6.193h3.759v2.018h-6.165Z" transform="translate(-379.424 -80.011)"/>
        <path id="Path_363" data-name="Path 363" d="M406.64,148.04v4.477h.581a2.192,2.192,0,0,0,1.078-.179,1.173,1.173,0,0,0,.5-.61,4.184,4.184,0,0,0,.194-1.423,2.835,2.835,0,0,0-.416-1.8,1.626,1.626,0,0,0-1.327-.47Zm-2.406-1.866h3.6a4.083,4.083,0,0,1,1.686.3,2.787,2.787,0,0,1,1.078.87,3.458,3.458,0,0,1,.607,1.314,5.866,5.866,0,0,1,.194,1.589,5.721,5.721,0,0,1-.276,2.045,3.213,3.213,0,0,1-.8,1.217,2.415,2.415,0,0,1-1.077.636,4.688,4.688,0,0,1-1.41.236h-3.6v-8.211" transform="translate(-378.495 -80.011)"/>
        <path id="Path_364" data-name="Path 364" d="M414.053,152.63h1.217a1.25,1.25,0,0,0,.857-.236.847.847,0,0,0,.276-.622.736.736,0,0,0-.276-.58,1.25,1.25,0,0,0-.857-.221h-1.217Zm0-3.236h1.023a1.317,1.317,0,0,0,.8-.194.83.83,0,0,0,.22-.595.783.783,0,0,0-.22-.566,1.263,1.263,0,0,0-.775-.194h-1.051Zm-2.434-3.221H416.1a2.4,2.4,0,0,1,1.743.593,1.894,1.894,0,0,1,.607,1.452,1.993,1.993,0,0,1-.441,1.259,1.924,1.924,0,0,1-.829.537,2.3,2.3,0,0,1,1.243.734,2.162,2.162,0,0,1,.387,1.3,2.64,2.64,0,0,1-.277,1.162,2.26,2.26,0,0,1-.772.8,2.5,2.5,0,0,1-.912.262,8.606,8.606,0,0,1-1.079.111h-4.148v-8.211" transform="translate(-377.419 -80.011)"/>
        <path id="Path_365" data-name="Path 365" d="M419,146.174h6.444v1.756h-4.038v1.3h3.761v1.687h-3.761v1.618h4.148v1.852H419Z" transform="translate(-376.343 -80.011)"/>
        <path id="Path_366" data-name="Path 366" d="M425.857,146.174h2.432v6.193h3.76v2.018h-6.193Z" transform="translate(-375.345 -80.011)"/>
        <path id="Path_367" data-name="Path 367" d="M432.2,146.174h2.406v6.193h3.759v2.018H432.2Z" transform="translate(-374.42 -80.011)"/>
      </g>
      <g id="Group_172" data-name="Group 172" transform="translate(76.065 56.312)">
        <path id="Path_368" data-name="Path 368" d="M448.16,152.427V137.8h9.873v1.725H450.1v4.532h6.867v1.727H450.1v6.647Z" transform="translate(-448.16 -137.544)"/>
        <path id="Path_369" data-name="Path 369" d="M460.152,152.427V137.8h1.936v14.632Z" transform="translate(-446.413 -137.544)"/>
        <path id="Path_370" data-name="Path 370" d="M465.7,152.427V137.8h1.987l7.687,11.488V137.8h1.856v14.632h-1.987l-7.687-11.5v11.5Z" transform="translate(-445.605 -137.544)"/>
        <path id="Path_371" data-name="Path 371" d="M478.088,152.427l5.62-14.632h2.086l5.99,14.632h-2.207L487.87,148h-6.119l-1.606,4.432Zm4.222-6.009h4.961l-1.527-4.052q-.7-1.846-1.038-3.034a18.406,18.406,0,0,1-.788,2.794Z" transform="translate(-443.799 -137.544)"/>
        <path id="Path_372" data-name="Path 372" d="M492.267,152.427V137.8h1.986l7.687,11.488V137.8H503.8v14.632h-1.987l-7.685-11.5v11.5Z" transform="translate(-441.733 -137.544)"/>
        <path id="Path_373" data-name="Path 373" d="M516.573,147.328l1.936.49a6.523,6.523,0,0,1-2.191,3.638,6.037,6.037,0,0,1-3.868,1.252,6.941,6.941,0,0,1-3.847-.964,6,6,0,0,1-2.256-2.789,9.943,9.943,0,0,1-.774-3.924,8.609,8.609,0,0,1,.874-3.987,5.964,5.964,0,0,1,2.485-2.585,7.263,7.263,0,0,1,3.549-.885,5.992,5.992,0,0,1,3.692,1.119,5.8,5.8,0,0,1,2.087,3.144l-1.908.45a4.532,4.532,0,0,0-1.477-2.328,3.935,3.935,0,0,0-2.436-.728,4.729,4.729,0,0,0-2.82.809,4.257,4.257,0,0,0-1.591,2.17,8.721,8.721,0,0,0-.461,2.81,8.913,8.913,0,0,0,.545,3.258,4.046,4.046,0,0,0,1.692,2.081,4.726,4.726,0,0,0,2.484.69,4.17,4.17,0,0,0,2.755-.937A4.815,4.815,0,0,0,516.573,147.328Z" transform="translate(-439.794 -137.576)"/>
        <path id="Path_374" data-name="Path 374" d="M520.126,152.427V137.8h1.936v14.632Z" transform="translate(-437.673 -137.544)"/>
        <path id="Path_375" data-name="Path 375" d="M524.285,152.427,529.9,137.8h2.086l5.989,14.632h-2.205L534.067,148h-6.119l-1.606,4.432Zm4.223-6.009h4.961l-1.527-4.052q-.7-1.846-1.039-3.034a18.663,18.663,0,0,1-.788,2.794Z" transform="translate(-437.067 -137.544)"/>
        <path id="Path_376" data-name="Path 376" d="M538.411,152.427V137.8h1.937V150.7h7.207v1.727Z" transform="translate(-435.009 -137.544)"/>
        <path id="Path_377" data-name="Path 377" d="M553.016,147.758l1.826-.159a4.011,4.011,0,0,0,.6,1.8,3.283,3.283,0,0,0,1.471,1.138,5.551,5.551,0,0,0,2.247.434,5.37,5.37,0,0,0,1.956-.33,2.707,2.707,0,0,0,1.263-.9,2.081,2.081,0,0,0,.415-1.251,1.9,1.9,0,0,0-.4-1.2,2.952,2.952,0,0,0-1.316-.864,25.842,25.842,0,0,0-2.607-.713,13.291,13.291,0,0,1-2.824-.914,3.952,3.952,0,0,1-1.563-1.363,3.328,3.328,0,0,1-.513-1.821,3.707,3.707,0,0,1,.629-2.07,3.9,3.9,0,0,1,1.837-1.463,6.994,6.994,0,0,1,2.684-.5,7.359,7.359,0,0,1,2.87.524,4.137,4.137,0,0,1,1.911,1.543,4.432,4.432,0,0,1,.719,2.306l-1.856.14a3,3,0,0,0-1.014-2.1,3.947,3.947,0,0,0-2.55-.709,4.1,4.1,0,0,0-2.561.644,1.931,1.931,0,0,0-.8,1.551,1.665,1.665,0,0,0,.569,1.3,7.681,7.681,0,0,0,2.919,1.043,19.318,19.318,0,0,1,3.239.935,4.434,4.434,0,0,1,1.886,1.492,3.627,3.627,0,0,1,.61,2.081,4,4,0,0,1-.668,2.2,4.411,4.411,0,0,1-1.922,1.606,6.693,6.693,0,0,1-2.82.574,8.433,8.433,0,0,1-3.328-.579,4.676,4.676,0,0,1-2.107-1.741A4.945,4.945,0,0,1,553.016,147.758Z" transform="translate(-432.88 -137.576)"/>
        <path id="Path_378" data-name="Path 378" d="M566.419,152.427V137.8H577v1.725h-8.644V144h8.1v1.717h-8.1v4.98h8.984v1.727Z" transform="translate(-430.927 -137.544)"/>
        <path id="Path_379" data-name="Path 379" d="M579.2,152.427V137.8h6.488a8.622,8.622,0,0,1,2.974.394,3.248,3.248,0,0,1,1.627,1.392,4.155,4.155,0,0,1,.608,2.206,3.677,3.677,0,0,1-1.008,2.625,5.105,5.105,0,0,1-3.114,1.359,4.973,4.973,0,0,1,1.169.729,10.012,10.012,0,0,1,1.606,1.945l2.546,3.983h-2.436l-1.936-3.044q-.849-1.316-1.4-2.016a4.421,4.421,0,0,0-.983-.978,2.94,2.94,0,0,0-.883-.39,5.9,5.9,0,0,0-1.078-.069h-2.246v6.5Zm1.936-8.174H585.3a6.2,6.2,0,0,0,2.076-.276,2.216,2.216,0,0,0,1.138-.878,2.376,2.376,0,0,0,.39-1.313,2.183,2.183,0,0,0-.753-1.707,3.533,3.533,0,0,0-2.382-.668h-4.631Z" transform="translate(-429.065 -137.544)"/>
        <path id="Path_380" data-name="Path 380" d="M597,152.427,591.334,137.8h2.1l3.8,10.629q.461,1.279.769,2.4.34-1.2.789-2.4l3.952-10.629h1.978l-5.73,14.632Z" transform="translate(-427.297 -137.544)"/>
        <path id="Path_381" data-name="Path 381" d="M605.712,152.427V137.8h1.936v14.632Z" transform="translate(-425.202 -137.544)"/>
        <path id="Path_382" data-name="Path 382" d="M621.786,147.328l1.936.49a6.523,6.523,0,0,1-2.191,3.638,6.039,6.039,0,0,1-3.868,1.252,6.947,6.947,0,0,1-3.849-.964,6.009,6.009,0,0,1-2.256-2.789,9.962,9.962,0,0,1-.773-3.924,8.607,8.607,0,0,1,.874-3.987,5.964,5.964,0,0,1,2.485-2.585,7.259,7.259,0,0,1,3.548-.885,5.993,5.993,0,0,1,3.693,1.119,5.8,5.8,0,0,1,2.086,3.144l-1.906.45a4.534,4.534,0,0,0-1.478-2.328,3.932,3.932,0,0,0-2.435-.728,4.73,4.73,0,0,0-2.821.809,4.263,4.263,0,0,0-1.591,2.17,8.751,8.751,0,0,0-.459,2.81,8.915,8.915,0,0,0,.544,3.258,4.04,4.04,0,0,0,1.692,2.081,4.729,4.729,0,0,0,2.485.69,4.172,4.172,0,0,0,2.755-.937A4.814,4.814,0,0,0,621.786,147.328Z" transform="translate(-424.462 -137.576)"/>
        <path id="Path_383" data-name="Path 383" d="M625.086,152.427V137.8h10.58v1.725h-8.643V144h8.1v1.717h-8.1v4.98h8.984v1.727Z" transform="translate(-422.379 -137.544)"/>
        <path id="Path_384" data-name="Path 384" d="M637.269,147.758l1.826-.159a4.025,4.025,0,0,0,.6,1.8,3.28,3.28,0,0,0,1.472,1.138,5.541,5.541,0,0,0,2.246.434,5.38,5.38,0,0,0,1.957-.33,2.709,2.709,0,0,0,1.261-.9,2.089,2.089,0,0,0,.415-1.251,1.907,1.907,0,0,0-.4-1.2,2.952,2.952,0,0,0-1.316-.864,25.837,25.837,0,0,0-2.607-.713,13.292,13.292,0,0,1-2.824-.914,3.941,3.941,0,0,1-1.562-1.363,3.32,3.32,0,0,1-.514-1.821,3.716,3.716,0,0,1,.629-2.07,3.9,3.9,0,0,1,1.837-1.463,6.994,6.994,0,0,1,2.684-.5,7.355,7.355,0,0,1,2.87.524,4.152,4.152,0,0,1,1.912,1.543,4.441,4.441,0,0,1,.718,2.306l-1.856.14a3,3,0,0,0-1.014-2.1,3.944,3.944,0,0,0-2.55-.709,4.094,4.094,0,0,0-2.56.644,1.932,1.932,0,0,0-.8,1.551,1.665,1.665,0,0,0,.569,1.3,7.681,7.681,0,0,0,2.919,1.043,19.318,19.318,0,0,1,3.239.935,4.434,4.434,0,0,1,1.886,1.492,3.628,3.628,0,0,1,.609,2.081,4,4,0,0,1-.668,2.2,4.412,4.412,0,0,1-1.923,1.606,6.693,6.693,0,0,1-2.82.574,8.437,8.437,0,0,1-3.328-.579,4.666,4.666,0,0,1-2.106-1.741A4.935,4.935,0,0,1,637.269,147.758Z" transform="translate(-420.603 -137.576)"/>
      </g>
    </g>
    <rect id="Rectangle_32" data-name="Rectangle 32" width="64.117" height="3.552" transform="translate(381.695 165.136)"/>
  </g>
</svg>
