<svg xmlns="http://www.w3.org/2000/svg" width="50.566" height="63.3" viewBox="0 0 50.566 63.3">
  <g id="Group_15" data-name="Group 15" transform="translate(-29.548 -116.789)">
    <g id="Group_14" data-name="Group 14">
      <g id="Group_12" data-name="Group 12">
        <path id="Path_77" data-name="Path 77" d="M54.82,161.283c-.022,0-.065,0-.065-.011a.131.131,0,0,1,.153,0,.142.142,0,0,1-.066.011h.088v-.011a5.667,5.667,0,0,0,4.906-5.692H74.554V144.308c-.283.021-.567.021-.872.031a8.633,8.633,0,0,1-2.355-.348,4.746,4.746,0,0,1-3.489-3.139,3.487,3.487,0,0,1-.108-.458,18.1,18.1,0,0,1-.35-2.411c-.087-1.58-.217-3.15-.413-4.719a15.444,15.444,0,0,0-1.724-5.659,8.852,8.852,0,0,0-7.086-4.568V119.82H76.386v43.84H33.277V119.82H51.485v3.217a8.883,8.883,0,0,0-7.065,4.568,15.889,15.889,0,0,0-1.745,5.659c-.175,1.569-.305,3.139-.392,4.719a15.214,15.214,0,0,1-.349,2.411,3.346,3.346,0,0,1-.11.458,4.742,4.742,0,0,1-3.51,3.139,8.472,8.472,0,0,1-2.333.348c-.305-.01-.588-.01-.872-.031V155.58H49.828a4.626,4.626,0,0,0,.217,1.635,5.157,5.157,0,0,0,4.71,4.057s0,.011-.022.011Zm0-3.294a1.821,1.821,0,0,1-1.155-.774,2.5,2.5,0,0,1-.327-.785h2.987a2.455,2.455,0,0,1-.327.785,1.873,1.873,0,0,1-1.178.774M38.6,151.982V147.1a7.227,7.227,0,0,0,5.5-3.15,7.133,7.133,0,0,0,.959-2.115,14.474,14.474,0,0,0,.5-2.716c.131-1.4.239-2.779.283-4.175A22.114,22.114,0,0,1,46.469,131a9.649,9.649,0,0,1,.937-2.181,5.872,5.872,0,0,1,2.792-2.388,8.982,8.982,0,0,1,3.271-.577l.915.01v-9.071H29.614v50.458H80.049V116.789H55.256v9.071l.938-.01a9.061,9.061,0,0,1,3.271.577,5.708,5.708,0,0,1,2.769,2.388A7.978,7.978,0,0,1,63.171,131a20.4,20.4,0,0,1,.655,3.946c.066,1.4.152,2.78.283,4.175a13.09,13.09,0,0,0,.5,2.716,7.89,7.89,0,0,0,.939,2.115,7.226,7.226,0,0,0,5.494,3.15l.022,3.238v1.646l-16.245-.033-16.223.033" fill="#fab323"/>
        <path id="Path_78" data-name="Path 78" d="M32.95,173.1V171.76h2.922v2.758a6.674,6.674,0,0,1-1.483.83,5.1,5.1,0,0,1-1.548.217,3.568,3.568,0,0,1-1.788-.392,2.751,2.751,0,0,1-1.068-1.179,4.175,4.175,0,0,1-.371-1.786,3.809,3.809,0,0,1,.414-1.844,2.806,2.806,0,0,1,1.2-1.188,3.758,3.758,0,0,1,1.7-.317,4.242,4.242,0,0,1,1.527.2,1.887,1.887,0,0,1,.829.6,2.805,2.805,0,0,1,.5,1.036l-1.832.349a.959.959,0,0,0-.393-.567,1.146,1.146,0,0,0-.7-.2,1.247,1.247,0,0,0-.981.457,2.341,2.341,0,0,0-.37,1.451,2.429,2.429,0,0,0,.37,1.505,1.338,1.338,0,0,0,1.047.447,2.131,2.131,0,0,0,.632-.1,4.371,4.371,0,0,0,.654-.327V173.1H32.95" fill="#ec3343"/>
        <path id="Path_79" data-name="Path 79" d="M38.663,172.218a2.353,2.353,0,0,0,.327,1.418,1.213,1.213,0,0,0,.959.435,1.132,1.132,0,0,0,.938-.425,2.4,2.4,0,0,0,.349-1.516,2.159,2.159,0,0,0-.349-1.33,1.175,1.175,0,0,0-.96-.424,1.191,1.191,0,0,0-.937.424,2.375,2.375,0,0,0-.327,1.418m-1.919,0a3.425,3.425,0,0,1,.851-2.475,3.113,3.113,0,0,1,2.354-.884,3.187,3.187,0,0,1,2.355.862,3.446,3.446,0,0,1,.829,2.442,4.154,4.154,0,0,1-.371,1.854,2.66,2.66,0,0,1-1.046,1.145,3.311,3.311,0,0,1-1.724.4,3.775,3.775,0,0,1-1.7-.349,2.665,2.665,0,0,1-1.111-1.113,3.789,3.789,0,0,1-.437-1.885" fill="#ec3343"/>
        <path id="Path_80" data-name="Path 80" d="M44.158,168.969h1.9v4.885H49.02v1.592H44.158Z" fill="#ec3343"/>
        <path id="Path_81" data-name="Path 81" d="M51.811,170.441v3.532h.458a1.725,1.725,0,0,0,.851-.142.928.928,0,0,0,.393-.479,3.314,3.314,0,0,0,.152-1.124,2.245,2.245,0,0,0-.327-1.417,1.286,1.286,0,0,0-1.047-.37Zm-1.9-1.472h2.835a3.235,3.235,0,0,1,1.33.24,2.2,2.2,0,0,1,.851.687,2.758,2.758,0,0,1,.479,1.036,4.6,4.6,0,0,1,.152,1.253,4.531,4.531,0,0,1-.217,1.613,2.537,2.537,0,0,1-.633.96,1.907,1.907,0,0,1-.849.5,3.667,3.667,0,0,1-1.113.186H49.914v-6.476" fill="#ec3343"/>
        <path id="Path_82" data-name="Path 82" d="M58.506,174.06h.959a.986.986,0,0,0,.676-.185.665.665,0,0,0,.218-.491.578.578,0,0,0-.218-.457.986.986,0,0,0-.676-.174h-.959Zm0-2.55h.806a1.041,1.041,0,0,0,.633-.153.655.655,0,0,0,.174-.469.617.617,0,0,0-.174-.447,1,1,0,0,0-.611-.153h-.828Zm-1.919-2.541h3.532a1.893,1.893,0,0,1,1.374.469,1.492,1.492,0,0,1,.479,1.144,1.569,1.569,0,0,1-.348.993,1.51,1.51,0,0,1-.654.424,1.815,1.815,0,0,1,.98.579,1.7,1.7,0,0,1,.305,1.024,2.1,2.1,0,0,1-.217.916,1.783,1.783,0,0,1-.61.632,1.937,1.937,0,0,1-.72.207,6.605,6.605,0,0,1-.85.088H56.587v-6.476" fill="#ec3343"/>
        <path id="Path_83" data-name="Path 83" d="M63.259,168.969H68.34v1.385H65.156v1.024h2.966v1.331H65.156v1.275h3.271v1.461H63.259Z" fill="#ec3343"/>
        <path id="Path_84" data-name="Path 84" d="M69.452,168.969h1.918v4.885h2.966v1.592H69.452Z" fill="#ec3343"/>
        <path id="Path_85" data-name="Path 85" d="M75.187,168.969h1.9v4.885h2.965v1.592H75.187Z" fill="#ec3343"/>
      </g>
    </g>
    <rect id="Rectangle_12" data-name="Rectangle 12" width="50.566" height="2.802" transform="translate(29.548 177.287)" fill="#fab527"/>
  </g>
</svg>
