<svg xmlns="http://www.w3.org/2000/svg" xmlns:xlink="http://www.w3.org/1999/xlink" width="160.406" height="160.406" viewBox="0 0 160.406 160.406">
  <defs>
    <clipPath id="clip-path">
      <path id="path16" d="M0-300H160.406V-139.6H0Z" transform="translate(0 300.002)"/>
    </clipPath>
  </defs>
  <g id="layer1" transform="translate(39.93 -225.635)">
    <g id="g10" transform="translate(-39.93 225.635)">
      <g id="g12">
        <g id="g14" clip-path="url(#clip-path)">
          <path id="path20" d="M101.658-142.659A55.443,55.443,0,0,0,157.1-198.1a55.443,55.443,0,0,0-55.443-55.443A55.443,55.443,0,0,0,46.214-198.1a55.443,55.443,0,0,0,55.443,55.443" transform="translate(-21.504 278.385)" fill="#1ab4d7"/>
          <path id="path22" d="M82.978-160.919,92.44-170.4a1.694,1.694,0,0,0,.489-1.192,1.7,1.7,0,0,0-1.7-1.7,1.681,1.681,0,0,0-1.205.5l-9.453,9.449-9.5-9.463a1.7,1.7,0,0,0-1.2-.491,1.7,1.7,0,0,0-1.7,1.694,1.684,1.684,0,0,0,.509,1.206l9.461,9.459L68.7-151.459a1.689,1.689,0,0,0-.514,1.214,1.7,1.7,0,0,0,1.7,1.694,1.681,1.681,0,0,0,1.2-.5l9.481-9.468L90-149.081a1.691,1.691,0,0,0,1.228.531,1.7,1.7,0,0,0,1.7-1.7,1.682,1.682,0,0,0-.493-1.2Z" transform="translate(-31.728 241.042)" fill="#fff"/>
          <path id="path24" d="M201.051-152.838a3.084,3.084,0,0,0,3.082,3.081,3.084,3.084,0,0,0,3.079-3.081,3.084,3.084,0,0,0-3.079-3.081,3.084,3.084,0,0,0-3.082,3.081" transform="translate(-93.552 232.958)" fill="#fff"/>
          <path id="path26" d="M187.069-160.974a8.932,8.932,0,0,1,8.922-8.922,8.932,8.932,0,0,1,8.92,8.922,8.93,8.93,0,0,1-8.92,8.919,8.93,8.93,0,0,1-8.922-8.919m-3.51,0a12.445,12.445,0,0,0,12.431,12.43,12.447,12.447,0,0,0,12.434-12.43,12.448,12.448,0,0,0-12.434-12.432,12.446,12.446,0,0,0-12.431,12.432" transform="translate(-85.413 241.095)" fill="#fff"/>
          <path id="path28" d="M174.777-173.009l-.522,0a7.052,7.052,0,0,0-4.337,1.466,1.7,1.7,0,0,0-1.656-1.333,1.676,1.676,0,0,0-1.681,1.681s.006,20.937.006,20.937a1.7,1.7,0,0,0,1.7,1.69,1.7,1.7,0,0,0,1.695-1.692s0-12.874,0-12.874c0-4.291.392-6.024,4.068-6.483a5.833,5.833,0,0,1,.711-.036,1.667,1.667,0,0,0,1.72-1.66,1.7,1.7,0,0,0-1.7-1.7" transform="translate(-77.513 240.911)" fill="#fff"/>
          <path id="path30" d="M117.827-162.993c0-.046,0-.095.006-.142a8.982,8.982,0,0,1,8.7-6.77,8.98,8.98,0,0,1,8.737,6.912Zm20.919-.32a12.4,12.4,0,0,0-5.508-8.124,12.53,12.53,0,0,0-13.852.367,12.573,12.573,0,0,0-5.238,10.208,12.241,12.241,0,0,0,.371,3,12.53,12.53,0,0,0,10.551,9.286,11.833,11.833,0,0,0,4.473-.3,12.241,12.241,0,0,0,3.715-1.586,13.337,13.337,0,0,0,3.18-3.013c.02-.022.039-.042.059-.066a1.843,1.843,0,0,0-.192-2.6,1.7,1.7,0,0,0-2.5.385c-.178.253-.376.514-.594.774a9.73,9.73,0,0,1-2.45,1.976,8.923,8.923,0,0,1-4.167,1.053,9.112,9.112,0,0,1-8.508-5.954,8.921,8.921,0,0,1-.378-1.425c-.012-.092-.02-.18-.023-.262l17.7,0c2.426-.051,3.732-1.763,3.371-3.721" transform="translate(-53.115 241.068)" fill="#fff"/>
        </g>
      </g>
    </g>
  </g>
</svg>
