<svg xmlns="http://www.w3.org/2000/svg" xmlns:xlink="http://www.w3.org/1999/xlink" width="193.015" height="151.305" viewBox="0 0 193.015 151.305">
  <defs>
    <clipPath id="clip-path">
      <path id="Path_463" data-name="Path 463" d="M724.516,154.386l52.239-52.239a5.092,5.092,0,0,1,7.2,0l46.992,46.993c3.726,3.726,5.963,26.879,1.445,29.59L727.2,167.617A8.1,8.1,0,0,1,724.516,154.386Z" fill="#f3ba18"/>
    </clipPath>
    <clipPath id="clip-path-2">
      <path id="Path_473" data-name="Path 473" d="M803.7,96.983h12.658a5.107,5.107,0,0,1,5.085,5.581l-1.97,21.112H800.365l-1.755-21.165A5.106,5.106,0,0,1,803.7,96.983Z" fill="#002245"/>
    </clipPath>
    <clipPath id="clip-path-3">
      <path id="Path_480" data-name="Path 480" d="M806.988,83.886c-2.328,2.049-3.992,6.861-1.943,9.189s7.033,1.29,9.361-.758a5.615,5.615,0,0,0-7.418-8.431Z" fill="#f4ae87"/>
    </clipPath>
    <clipPath id="clip-path-4">
      <path id="Path_490" data-name="Path 490" d="M737.851,102.08h12.658a5.107,5.107,0,0,1,5.085,5.581l-1.97,21.112H734.517l-1.755-21.165A5.106,5.106,0,0,1,737.851,102.08Z" fill="#002245"/>
    </clipPath>
    <clipPath id="clip-path-5">
      <path id="Path_497" data-name="Path 497" d="M746.727,88.254c2.342,2.033,4.039,6.834,2.006,9.176s-7.024,1.339-9.366-.694a5.615,5.615,0,0,1,7.36-8.482Z" fill="#f4ae87"/>
    </clipPath>
  </defs>
  <g id="Group_233" data-name="Group 233" transform="translate(-683.757 -34.625)">
    <g id="Group_233-2" data-name="Group 233">
      <path id="Path_460" data-name="Path 460" d="M724.516,154.386l52.239-52.239a5.092,5.092,0,0,1,7.2,0l55.964,55.965c3.726,3.726-3.009,17.907-7.527,20.618L727.2,167.617A8.1,8.1,0,0,1,724.516,154.386Z" fill="#f3ba18"/>
    </g>
    <g id="Group_237" data-name="Group 237">
      <path id="Path_461" data-name="Path 461" d="M724.516,154.386l52.239-52.239a5.092,5.092,0,0,1,7.2,0l46.992,46.993c3.726,3.726,5.963,26.879,1.445,29.59L727.2,167.617A8.1,8.1,0,0,1,724.516,154.386Z" fill="#f3ba18"/>
      <g id="Group_236" data-name="Group 236" clip-path="url(#clip-path)">
        <g id="Group_235" data-name="Group 235">
          <g id="Group_234" data-name="Group 234">
            <path id="Path_462" data-name="Path 462" d="M779.973,176.821V95.983l65.783,45.983L844.61,163.73l-49.255,13.418Z" fill="#e0a000"/>
          </g>
        </g>
      </g>
    </g>
    <g id="Group_238" data-name="Group 238">
      <rect id="Rectangle_80" data-name="Rectangle 80" width="6.088" height="6.365" transform="translate(807.098 93.062)" fill="#e8a181"/>
    </g>
    <g id="Group_239" data-name="Group 239">
      <path id="Path_464" data-name="Path 464" d="M819.908,166.823v3.212h10.8s.75-2.248-3-2.89-5.46-.964-5.46-.964Z" fill="#c77f67"/>
    </g>
    <g id="Group_240" data-name="Group 240">
      <path id="Path_465" data-name="Path 465" d="M801.071,166.823v3.212h-10.8s-.75-2.248,3-2.89,5.46-.964,5.46-.964Z" fill="#c77f67"/>
    </g>
    <g id="Group_241" data-name="Group 241">
      <path id="Path_466" data-name="Path 466" d="M830.347,71.78s-1.159-3.636,1.459-4.091,2.936,4.139,2.936,4.139Z" fill="#f4ae87"/>
    </g>
    <g id="Group_242" data-name="Group 242">
      <path id="Path_467" data-name="Path 467" d="M800.379,123.676h19.093l5.81,19.922v23.255h-5.81a70.574,70.574,0,0,1-2.366-15.358c-.064-1.895.291-7.066.291-7.066l-6.283-12.958a1.311,1.311,0,0,0-1.18-.739h-.017a1.312,1.312,0,0,0-1.18.739l-6.282,12.958a50.051,50.051,0,0,1,.677,7.9c0,6.642-2.753,14.528-2.753,14.528h-5.81V143.6Z" fill="#448fea"/>
    </g>
    <g id="Group_243" data-name="Group 243">
      <path id="Path_468" data-name="Path 468" d="M803.7,96.983h12.658a5.107,5.107,0,0,1,5.085,5.581l-1.97,21.112H800.365l-1.755-21.165A5.106,5.106,0,0,1,803.7,96.983Z" fill="#002245"/>
    </g>
    <g id="Group_244" data-name="Group 244">
      <path id="Path_469" data-name="Path 469" d="M819.506,109.154c-3.957-3.752-8.6-4.177-3.713-10.492,4.11-5.308,10.389-9.544,11.13-11.129s2.91-15.581,2.91-15.581l4.909-.124-.888,16.19a6.458,6.458,0,0,1-.778,2.485l-7.667,10.33Z" fill="#002245"/>
    </g>
    <g id="Group_245" data-name="Group 245">
      <rect id="Rectangle_81" data-name="Rectangle 81" width="6.779" height="2.767" transform="translate(828.654 70.726) rotate(-1.138)" fill="#230603"/>
    </g>
    <g id="Group_246" data-name="Group 246">
      <path id="Path_470" data-name="Path 470" d="M790.066,71.78s1.159-3.636-1.459-4.091-2.936,4.139-2.936,4.139Z" fill="#f4ae87"/>
    </g>
    <g id="Group_247" data-name="Group 247">
      <path id="Path_471" data-name="Path 471" d="M800.907,109.154c3.957-3.752,8.6-4.177,3.713-10.492-4.11-5.308-10.389-9.544-11.129-11.129s-2.911-15.581-2.911-15.581l-4.909-.124.888,16.19a6.459,6.459,0,0,0,.778,2.485L795,100.833Z" fill="#002245"/>
    </g>
    <g id="Group_248" data-name="Group 248">
      <rect id="Rectangle_82" data-name="Rectangle 82" width="2.767" height="6.78" transform="translate(784.926 73.357) rotate(-88.862)" fill="#230603"/>
    </g>
    <g id="Group_251" data-name="Group 251">
      <path id="Path_472" data-name="Path 472" d="M803.7,96.983h12.658a5.107,5.107,0,0,1,5.085,5.581l-1.97,21.112H800.365l-1.755-21.165A5.106,5.106,0,0,1,803.7,96.983Z" fill="#002245"/>
      <g id="Group_250" data-name="Group 250" clip-path="url(#clip-path-2)">
        <g id="Group_249" data-name="Group 249">
          <rect id="Rectangle_83" data-name="Rectangle 83" width="0.655" height="31.361" transform="translate(809.701 95.276)" fill="#230603"/>
        </g>
      </g>
    </g>
    <g id="Group_252" data-name="Group 252">
      <path id="Path_474" data-name="Path 474" d="M809.151,98.228h2.006l1.383,17.156-2.011,2.939a.467.467,0,0,1-.772,0l-1.99-2.937Z" fill="#f9c273"/>
    </g>
    <g id="Group_253" data-name="Group 253">
      <path id="Path_475" data-name="Path 475" d="M808.147,99.052a2.082,2.082,0,1,0,2.082-2.081A2.081,2.081,0,0,0,808.147,99.052Z" fill="#34be8e"/>
    </g>
    <g id="Group_254" data-name="Group 254">
      <path id="Path_476" data-name="Path 476" d="M810.229,96.971s3.049,4.67,3.879,4.854,1.937-4.8,1.937-4.8Z" fill="#230603"/>
    </g>
    <g id="Group_255" data-name="Group 255">
      <path id="Path_477" data-name="Path 477" d="M810.234,96.971s-3.049,4.67-3.879,4.854-1.937-4.8-1.937-4.8Z" fill="#230603"/>
    </g>
    <g id="Group_259" data-name="Group 259">
      <path id="Path_478" data-name="Path 478" d="M806.988,83.886c-2.328,2.049-3.992,6.861-1.943,9.189s7.033,1.29,9.361-.758a5.615,5.615,0,0,0-7.418-8.431Z" fill="#f4ae87"/>
      <g id="Group_258" data-name="Group 258" clip-path="url(#clip-path-3)">
        <g id="Group_257" data-name="Group 257">
          <g id="Group_256" data-name="Group 256">
            <path id="Path_479" data-name="Path 479" d="M810.485,98.1s2.7-5.555,3.387-7.144-1.706-1.939-1.706-1.939-9.5-10.844-8.639-12.1,13.079,4.994,13.916,6.224,2.4,9.434,1.547,10.556-7.284,1.495-7.284,1.495Z" fill="#fb5d51"/>
          </g>
        </g>
      </g>
    </g>
    <g id="Group_260" data-name="Group 260">
      <rect id="Rectangle_84" data-name="Rectangle 84" width="6.088" height="6.365" transform="translate(741.25 97.178)" fill="#f4ae87"/>
    </g>
    <g id="Group_261" data-name="Group 261">
      <path id="Path_481" data-name="Path 481" d="M753.624,171.921v3.211h10.8s.749-2.248-3-2.89-5.459-.964-5.459-.964Z" fill="#c77f67"/>
    </g>
    <g id="Group_262" data-name="Group 262">
      <path id="Path_482" data-name="Path 482" d="M734.787,171.921v3.211h-10.8s-.749-2.248,3-2.89,5.46-.964,5.46-.964Z" fill="#c77f67"/>
    </g>
    <g id="Group_263" data-name="Group 263">
      <path id="Path_483" data-name="Path 483" d="M764.5,76.878s-1.159-3.637,1.459-4.092,2.936,4.139,2.936,4.139Z" fill="#f4ae87"/>
    </g>
    <g id="Group_265" data-name="Group 265">
      <g id="Group_264" data-name="Group 264">
        <path id="Path_484" data-name="Path 484" d="M734.532,128.773h19.092l5.811,19.923V171.95h-5.811a70.556,70.556,0,0,1-2.366-15.357c-.064-1.9.291-7.067.291-7.067l-6.283-12.957a1.31,1.31,0,0,0-1.18-.74h-.017a1.311,1.311,0,0,0-1.18.74l-6.282,12.957a50.072,50.072,0,0,1,.677,7.9c0,6.641-2.752,14.527-2.752,14.527h-5.811V148.7Z" fill="#34be8e"/>
      </g>
    </g>
    <g id="Group_266" data-name="Group 266">
      <path id="Path_485" data-name="Path 485" d="M737.851,102.08h12.658a5.107,5.107,0,0,1,5.085,5.581l-1.97,21.112H734.517l-1.755-21.165A5.106,5.106,0,0,1,737.851,102.08Z" fill="#002245"/>
    </g>
    <g id="Group_267" data-name="Group 267">
      <path id="Path_486" data-name="Path 486" d="M753.659,114.251c-3.958-3.751-8.6-4.177-3.713-10.492,4.109-5.308,10.388-9.543,11.129-11.129s2.91-15.581,2.91-15.581l4.909-.124-.888,16.191a6.453,6.453,0,0,1-.778,2.484l-7.667,10.33Z" fill="#002245"/>
    </g>
    <g id="Group_268" data-name="Group 268">
      <rect id="Rectangle_85" data-name="Rectangle 85" width="6.779" height="2.767" transform="translate(762.806 75.823) rotate(-1.14)" fill="#00003a"/>
    </g>
    <g id="Group_269" data-name="Group 269">
      <path id="Path_487" data-name="Path 487" d="M724,140.455s1.159,3.637-1.459,4.092-2.936-4.139-2.936-4.139Z" fill="#f4ae87"/>
    </g>
    <g id="Group_270" data-name="Group 270">
      <path id="Path_488" data-name="Path 488" d="M734.841,103.082c3.957,3.751,8.6,4.177,3.712,10.492-4.109,5.308-10.388,9.543-11.129,11.129s-2.91,15.581-2.91,15.581l-4.909.124.888-16.191a6.46,6.46,0,0,1,.778-2.484l7.667-10.33Z" fill="#002245"/>
    </g>
    <g id="Group_271" data-name="Group 271">
      <rect id="Rectangle_86" data-name="Rectangle 86" width="6.78" height="2.767" transform="translate(718.86 138.878) rotate(-1.139)" fill="#00003a"/>
    </g>
    <g id="Group_274" data-name="Group 274">
      <path id="Path_489" data-name="Path 489" d="M737.851,102.08h12.658a5.107,5.107,0,0,1,5.085,5.581l-1.97,21.112H734.517l-1.755-21.165A5.106,5.106,0,0,1,737.851,102.08Z" fill="#002245"/>
      <g id="Group_273" data-name="Group 273" clip-path="url(#clip-path-4)">
        <g id="Group_272" data-name="Group 272">
          <rect id="Rectangle_87" data-name="Rectangle 87" width="0.655" height="31.361" transform="translate(743.853 100.373)" fill="#00003a"/>
        </g>
      </g>
    </g>
    <g id="Group_275" data-name="Group 275">
      <path id="Path_491" data-name="Path 491" d="M743.3,103.325h2.006l1.383,17.156-2.01,2.939a.468.468,0,0,1-.773,0l-1.99-2.937Z" fill="#f9c273"/>
    </g>
    <g id="Group_276" data-name="Group 276">
      <path id="Path_492" data-name="Path 492" d="M742.3,104.15a2.081,2.081,0,1,0,2.081-2.082A2.08,2.08,0,0,0,742.3,104.15Z" fill="#34be8e"/>
    </g>
    <g id="Group_277" data-name="Group 277">
      <path id="Path_493" data-name="Path 493" d="M744.381,102.068s3.049,4.67,3.879,4.854,1.937-4.8,1.937-4.8Z" fill="#00003a"/>
    </g>
    <g id="Group_278" data-name="Group 278">
      <path id="Path_494" data-name="Path 494" d="M744.386,102.068s-3.049,4.67-3.879,4.854-1.937-4.8-1.937-4.8Z" fill="#00003a"/>
    </g>
    <g id="Group_282" data-name="Group 282">
      <path id="Path_495" data-name="Path 495" d="M746.727,88.254c2.342,2.033,4.039,6.834,2.006,9.176s-7.024,1.339-9.366-.694a5.615,5.615,0,0,1,7.36-8.482Z" fill="#f4ae87"/>
      <g id="Group_281" data-name="Group 281" clip-path="url(#clip-path-5)">
        <g id="Group_280" data-name="Group 280">
          <g id="Group_279" data-name="Group 279">
            <path id="Path_496" data-name="Path 496" d="M744.335,100.977s-3.743-4.017-4.443-5.6,1.692-1.95,1.692-1.95l-.626-2.375s.963-2.1.09-3.341-3.953-1.355-4.781-.119-2.338,9.45-1.475,10.566,7.295,1.445,7.295,1.445Z" fill="#014596"/>
          </g>
        </g>
      </g>
    </g>
    <g id="Group_283" data-name="Group 283">
      <path id="Path_498" data-name="Path 498" d="M687.905,139.821l93.759,32.2-.982,13.909H720.607a3.121,3.121,0,0,1-2.389-1.111l-33.711-40.032A3.123,3.123,0,0,1,687.905,139.821Z" fill="#e0a000"/>
    </g>
    <g id="Group_284" data-name="Group 284">
      <path id="Path_499" data-name="Path 499" d="M872.507,139.923s-92.479,31.337-92.479,31.607V185.3a.63.63,0,0,0,.631.631h59.4a3.208,3.208,0,0,0,2.455-1.142L876,145.027A3.209,3.209,0,0,0,872.507,139.923Z" fill="#db8c00"/>
    </g>
    <g id="Group_286" data-name="Group 286">
      <g id="Group_285" data-name="Group 285">
        <path id="Path_500" data-name="Path 500" d="M742.208,92.959,746.6,87.9c.76-.876.814-5.261-2.819-5s-6.3,6.966-6.175,8.783S741.027,94.321,742.208,92.959Z" fill="#014596"/>
      </g>
    </g>
    <g id="Group_287" data-name="Group 287">
      <path id="Path_501" data-name="Path 501" d="M781.035,35.576l2.19,6.342a1.414,1.414,0,0,0,1.309.951l6.709.123a1.413,1.413,0,0,1,.825,2.54l-5.355,4.042a1.413,1.413,0,0,0-.5,1.539l1.956,6.418a1.413,1.413,0,0,1-2.16,1.57l-5.5-3.844a1.414,1.414,0,0,0-1.618,0l-5.5,3.844a1.413,1.413,0,0,1-2.16-1.57l1.955-6.418a1.413,1.413,0,0,0-.5-1.539l-5.354-4.042a1.413,1.413,0,0,1,.825-2.54l6.708-.123a1.412,1.412,0,0,0,1.309-.951l2.19-6.342A1.413,1.413,0,0,1,781.035,35.576Z" fill="#fb5d51"/>
    </g>
  </g>
</svg>
