<svg xmlns="http://www.w3.org/2000/svg" width="576.666" height="316.732" viewBox="0 0 576.666 316.732">
  <g id="Group_222" data-name="Group 222" transform="translate(-672 -382)">
    <g id="Group_221" data-name="Group 221" transform="translate(585.333 263.91)">
      <g id="OBJECTS">
        <g id="Group_190" data-name="Group 190">
          <g id="Group_189" data-name="Group 189">
            <g id="Group_188" data-name="Group 188">
              <path id="Path_399" data-name="Path 399" d="M622.946,407.173c5.778-13.753,11.145-27.735,13.5-42.43,2.762-17.267.976-35.9-8.546-50.563-5.211-8.026-12.547-14.624-16.929-23.132-11.823-22.955,1.156-51.094-3.5-76.491-5.256-28.675-32.814-48.993-61.309-55.144S488.1,158.329,459.324,163s-58.635,8.884-86.738,1.135c-21.947-6.051-41.3-19.015-62.466-27.4s-46.746-11.586-65.561,1.232c-20.094,13.689-25.676,40.373-29.442,64.394s-8.872,50.671-28.553,64.948c-17.7,12.836-43.065,12.15-59.444,26.629-18.544,16.392-17.933,46.918-5.407,68.263,11.219,19.119,29.569,32.6,48.142,44.969Z" fill="#cee8f0"/>
            </g>
          </g>
        </g>
        <g id="Group_193" data-name="Group 193">
          <g id="Group_191" data-name="Group 191">
            <path id="Path_400" data-name="Path 400" d="M189.778,124.969l20.743,12.3,3.118-4.516-.025-5.2,2.149-3.14-21.033-.182Z" fill="#36c2d9"/>
            <path id="Path_401" data-name="Path 401" d="M189.778,124.969l29.127,2.858,4.421,9.252Z" fill="#cee8f0"/>
            <path id="Path_402" data-name="Path 402" d="M213.22,118.09l2.543,6.323-25.985.556Z" fill="#cee8f0"/>
          </g>
          <g id="Group_192" data-name="Group 192">
            <path id="Path_403" data-name="Path 403" d="M632.833,192.233l-23.708,4.417-1.375-5.312,1.813-4.875-.937-3.687,19.813,7.063Z" fill="#36c2d9"/>
            <path id="Path_404" data-name="Path 404" d="M632.833,192.233,604.5,184.9l-7.333,7.167Z" fill="#cee8f0"/>
            <path id="Path_405" data-name="Path 405" d="M613.188,177.712l-4.562,5.063,24.208,9.458Z" fill="#cee8f0"/>
          </g>
        </g>
        <g id="Group_194" data-name="Group 194">
          <path id="Path_406" data-name="Path 406" d="M254.507,170.407h0a8.833,8.833,0,0,0-8.833-8.833h0a8.833,8.833,0,0,0,8.833-8.833h0a8.833,8.833,0,0,0,8.833,8.833h0A8.833,8.833,0,0,0,254.507,170.407Z" fill="#fff"/>
          <path id="Path_407" data-name="Path 407" d="M246.507,157.415h0A4.508,4.508,0,0,0,242,152.907h0a4.507,4.507,0,0,0,4.508-4.507h0a4.507,4.507,0,0,0,4.508,4.507h0A4.508,4.508,0,0,0,246.507,157.415Z" fill="#fff"/>
          <path id="Path_408" data-name="Path 408" d="M554.59,252.907h0a8.833,8.833,0,0,0-8.833-8.833h0a8.833,8.833,0,0,0,8.833-8.833h0a8.834,8.834,0,0,0,8.834,8.833h0A8.834,8.834,0,0,0,554.59,252.907Z" fill="#fff"/>
          <path id="Path_409" data-name="Path 409" d="M565.424,239.5h0a5.341,5.341,0,0,0-5.341-5.341h0a5.341,5.341,0,0,0,5.341-5.341h0a5.341,5.341,0,0,0,5.341,5.341h0A5.341,5.341,0,0,0,565.424,239.5Z" fill="#fff"/>
          <path id="Path_410" data-name="Path 410" d="M149.674,322.407h0a8.834,8.834,0,0,0-8.834-8.833h0a8.834,8.834,0,0,0,8.834-8.833h0a8.833,8.833,0,0,0,8.833,8.833h0A8.833,8.833,0,0,0,149.674,322.407Z" fill="#fff"/>
          <path id="Path_411" data-name="Path 411" d="M139.8,308.623h0a5.425,5.425,0,0,0-5.425-5.424h0a5.425,5.425,0,0,0,5.425-5.425h0a5.424,5.424,0,0,0,5.424,5.425h0A5.424,5.424,0,0,0,139.8,308.623Z" fill="#fff"/>
          <path id="Path_412" data-name="Path 412" d="M506.257,191.574h0a8.833,8.833,0,0,0-8.833-8.833h0a8.834,8.834,0,0,0,8.833-8.834h0a8.834,8.834,0,0,0,8.833,8.834h0A8.833,8.833,0,0,0,506.257,191.574Z" fill="#fff"/>
        </g>
        <g id="Group_196" data-name="Group 196">
          <g id="Group_195" data-name="Group 195">
            <path id="Path_413" data-name="Path 413" d="M662.3,407.173H87.7a1,1,0,1,1,0-2H662.3a1,1,0,1,1,0,2Z" fill="#048fa6"/>
          </g>
        </g>
        <g id="Group_200" data-name="Group 200">
          <g id="Group_199" data-name="Group 199">
            <path id="Path_414" data-name="Path 414" d="M509.926,238.026a5.254,5.254,0,0,0-.718-.91L377.4,131.05a13.022,13.022,0,0,0-16.358.025L229.987,237.212a5.062,5.062,0,0,0-.755.99,6.866,6.866,0,0,0-1.378,4.126V400.277a6.9,6.9,0,0,0,6.9,6.9h269.8a6.9,6.9,0,0,0,6.9-6.9V242.328A6.864,6.864,0,0,0,509.926,238.026Z" fill="#d68c34"/>
            <g id="Group_198" data-name="Group 198">
              <rect id="Rectangle_35" data-name="Rectangle 35" width="220.769" height="236.622" rx="5.798" transform="translate(259.267 151.469)" fill="#fff"/>
              <g id="Group_197" data-name="Group 197">
                <rect id="Rectangle_36" data-name="Rectangle 36" width="55.667" height="5.333" transform="translate(273.75 165.173)" fill="#cee8f0"/>
                <rect id="Rectangle_37" data-name="Rectangle 37" width="18.25" height="5.333" transform="translate(273.75 183.507)" fill="#cee8f0"/>
                <rect id="Rectangle_38" data-name="Rectangle 38" width="49.75" height="5.333" transform="translate(294.5 183.507)" fill="#cee8f0"/>
                <rect id="Rectangle_39" data-name="Rectangle 39" width="13.75" height="5.333" transform="translate(346 183.507)" fill="#cee8f0"/>
                <rect id="Rectangle_40" data-name="Rectangle 40" width="40.25" height="5.333" transform="translate(273.75 193.507)" fill="#cee8f0"/>
                <rect id="Rectangle_41" data-name="Rectangle 41" width="53.25" height="5.333" transform="translate(316 193.507)" fill="#cee8f0"/>
                <rect id="Rectangle_42" data-name="Rectangle 42" width="70.5" height="5.333" transform="translate(371.5 193.507)" fill="#cee8f0"/>
                <rect id="Rectangle_43" data-name="Rectangle 43" width="57.667" height="5.333" transform="translate(273.75 203.507)" fill="#cee8f0"/>
                <rect id="Rectangle_44" data-name="Rectangle 44" width="27" height="5.333" transform="translate(273.75 223.507)" fill="#cee8f0"/>
                <rect id="Rectangle_45" data-name="Rectangle 45" width="43.667" height="5.333" transform="translate(273.75 233.507)" fill="#cee8f0"/>
                <rect id="Rectangle_46" data-name="Rectangle 46" width="25.667" height="5.333" transform="translate(320.417 233.507)" fill="#cee8f0"/>
                <rect id="Rectangle_47" data-name="Rectangle 47" width="12" height="5.333" transform="translate(348.75 233.507)" fill="#cee8f0"/>
                <rect id="Rectangle_48" data-name="Rectangle 48" width="17.667" height="5.333" transform="translate(273.75 243.507)" fill="#cee8f0"/>
                <rect id="Rectangle_49" data-name="Rectangle 49" width="37.417" height="5.333" transform="translate(294.083 243.507)" fill="#cee8f0"/>
                <rect id="Rectangle_50" data-name="Rectangle 50" width="20.167" height="5.333" transform="translate(334.083 243.507)" fill="#cee8f0"/>
                <rect id="Rectangle_51" data-name="Rectangle 51" width="45.167" height="5.333" transform="translate(356.583 243.507)" fill="#cee8f0"/>
                <rect id="Rectangle_52" data-name="Rectangle 52" width="26.75" height="5.333" transform="translate(273.75 253.507)" fill="#cee8f0"/>
                <rect id="Rectangle_53" data-name="Rectangle 53" width="45.25" height="5.333" transform="translate(302.5 253.507)" fill="#cee8f0"/>
                <rect id="Rectangle_54" data-name="Rectangle 54" width="38.5" height="5.333" transform="translate(350.5 253.507)" fill="#cee8f0"/>
                <rect id="Rectangle_55" data-name="Rectangle 55" width="71" height="5.333" transform="translate(391.75 253.507)" fill="#cee8f0"/>
                <rect id="Rectangle_56" data-name="Rectangle 56" width="43.5" height="5.333" transform="translate(273.75 263.507)" fill="#cee8f0"/>
                <rect id="Rectangle_57" data-name="Rectangle 57" width="56.5" height="5.333" transform="translate(321.5 263.507)" fill="#cee8f0"/>
                <rect id="Rectangle_58" data-name="Rectangle 58" width="80.25" height="5.333" transform="translate(382.25 263.507)" fill="#cee8f0"/>
                <rect id="Rectangle_59" data-name="Rectangle 59" width="26.25" height="5.333" transform="translate(273.75 273.507)" fill="#cee8f0"/>
                <rect id="Rectangle_60" data-name="Rectangle 60" width="26.25" height="5.333" transform="translate(302.25 273.507)" fill="#cee8f0"/>
              </g>
            </g>
            <path id="Path_415" data-name="Path 415" d="M511.448,242.328V400.277a6.9,6.9,0,0,1-6.9,6.9H234.75a6.9,6.9,0,0,1-6.9-6.9V242.328a6.9,6.9,0,0,1,2.317-5.153l119.321,97.6,11.132,8.393a15.008,15.008,0,0,0,18.055,0l11.132-8.393,119.321-97.6A6.9,6.9,0,0,1,511.448,242.328Z" fill="#fbac4d"/>
            <path id="Path_416" data-name="Path 416" d="M508.982,405.562a6.881,6.881,0,0,1-4.43,1.611H234.75a6.885,6.885,0,0,1-4.43-1.611l133.672-88.011a10.292,10.292,0,0,1,11.319,0Z" fill="#fbbc71"/>
          </g>
        </g>
        <g id="Group_213" data-name="Group 213">
          <path id="Path_417" data-name="Path 417" d="M251.457,289.153l-14.308-24.369s-2.114-20.275-4.78-30.23c-.7-2.625-2.665-5.705-6.575-5.66-3.057-.163-5.3,1.163-6.111,4.98-2.2,10.335,6.8,38.826,8.037,40.173,1.118,1.22,17.872,20.538,17.872,20.538C247.085,295.99,253.4,291.391,251.457,289.153Z" fill="#fff"/>
          <g id="Group_205" data-name="Group 205">
            <g id="Group_202" data-name="Group 202">
              <g id="Group_201" data-name="Group 201">
                <path id="Path_418" data-name="Path 418" d="M182.96,383.22c-1.742,1.012-3.262,4-4.046,6.511-.292.936-.379,3.384,3.592,6.169,6.173,4.331,13.2,11.8,19.836,10.7A7.941,7.941,0,0,0,205.5,405a3.588,3.588,0,0,0,.839-3.621c-1.33-2.67-6.221-5.139-8.182-6.648-2.675-2.056-9.788-8.582-11.425-10.2A8.889,8.889,0,0,0,182.96,383.22Z" fill="#ce9961"/>
                <path id="Path_419" data-name="Path 419" d="M181.058,384.879l4.586-5.755c2.487-1.662,7.4-1.012,9.537,1.084l3.563,3.5c-.038-.038-3.908,3.812-4.092,4.085,0,0,1.848,1.635,3.267,2.9.544.483,4.2,3.816,5.272,4.993,4.131,4.548,3.991,7.076,2.44,8.393-3,2.548-6.9,1.5-13.82-3.179-1.559-1.055-3.28-2.285-5.181-3.7-1.125-.836-2.5-1.833-3.778-2.957a8.859,8.859,0,0,1-3.075-4.145A6.009,6.009,0,0,1,181.058,384.879Z" fill="#1a1b1b"/>
              </g>
              <path id="Path_420" data-name="Path 420" d="M211.053,304.712s-2.161,18.289-5.9,45.138c-3.982,5.467-18.163,23.438-22.323,32.4-2.243,3.255,7.934,13.165,12.722,8.621l27.117-33.5a16.714,16.714,0,0,0,2.619-4.524,125.038,125.038,0,0,0,7.993-44.288c-.008-.71-.048-5.231-.048-5.231C231.692,290.032,211.79,295.763,211.053,304.712Z" fill="#6b85de"/>
              <path id="Path_421" data-name="Path 421" d="M205.488,347.449c-.11.8-.218,1.584-.331,2.4-3.982,5.467-18.163,23.438-22.323,32.4-2.243,3.255,7.934,13.165,12.722,8.621L214.228,367.8C211.35,361.207,208.022,354.372,205.488,347.449Z" fill="#292077" opacity="0.2" style="mix-blend-mode: multiply;isolation: isolate"/>
            </g>
            <g id="Group_204" data-name="Group 204">
              <g id="Group_203" data-name="Group 203">
                <path id="Path_422" data-name="Path 422" d="M214.127,420.873c.164,1.084.5,5.2,1.454,5.918,2.283,1.721,3.336,1.69,6.916,3.241,2.031.88,7.386,3.946,9.624,4.283,10.611,1.561,12.279-.682,12.292-3.943.008-1.948-3.116-3.607-3.306-3.723-1.642-1-7.849-.916-11.179-2.241-3.527-1.4-7.085-2.691-10.494-4.232C217.908,419.486,214.183,420.458,214.127,420.873Z" fill="#ce9961"/>
                <path id="Path_423" data-name="Path 423" d="M216.051,424.559c-3.006-2.282-1.745-6.917-1.732-10.691.006-2.072,12.727-.971,13.242.856.383,1.357,1.041,1.581,2.066,2.554,2.014,1.909,9.043,6.029,12.973,9.348,4.718,3.987.339,6.06-2.661,6.065A33.023,33.023,0,0,1,227.2,430.2c-3.1-1.482-4.237-2.574-7.459-3.761A14.47,14.47,0,0,1,216.051,424.559Z" fill="#1a1b1b"/>
              </g>
              <path id="Path_424" data-name="Path 424" d="M201.64,362.6c.167,3.033.114,6.075.281,9.109.708,12.913,9.837,29.9,11.66,45.451.788,6.726,16.367,5.252,15.563-.509-2.313-16.566-6.558-48.2-6.475-51.38.051-1.983-2.085-58.291-2.6-59.15-.711-1.183-25.617-.439-26.045,2.876a18.194,18.194,0,0,0-.216,3.682v.188a140.673,140.673,0,0,0,4.439,33.741C200.041,353.657,201.5,360.026,201.64,362.6Z" fill="#6b85de"/>
            </g>
          </g>
          <path id="Path_425" data-name="Path 425" d="M233.161,302.288s-2.06-36.582-1.451-56.681a31.027,31.027,0,0,0-1.1-9.544c-.845-2.933-1.987-5.321-3.612-6.555-3.383-2.945-25.561,5.888-36.079,17.018a6.564,6.564,0,0,0-1.526,5.591c.586,5.2,4.294,9.4,5.6,24.95a99.414,99.414,0,0,1-1.173,31.791c-.427,2.965,4.25,4.948,13.54,5.108C218.3,314.154,230.173,308.037,233.161,302.288Z" fill="#fff"/>
          <path id="Path_426" data-name="Path 426" d="M193.646,310.121c6.333,8.151,33.527,6.474,39.591-6.794a6.172,6.172,0,0,0-.169-2.755c-8.641,15.442-34.136,14.972-38.813,6.015A7.083,7.083,0,0,0,193.646,310.121Z" fill="#1a1b1b"/>
          <path id="Path_427" data-name="Path 427" d="M223.49,308.7a22.431,22.431,0,0,1-6.831,2.458v3.738l.45.361a19.423,19.423,0,0,0,6.832-2.458V309.06Z" fill="#ddd9df"/>
          <g id="Group_206" data-name="Group 206">
            <path id="Path_428" data-name="Path 428" d="M219.532,237.156c-.036-.138-.077-.274-.121-.406-.166-.495-1.36-2.364-1.313-2.885s1.5-.151,2.952,1.678c1.965,2.471,3.962,9.319,3.962,9.319s-7.04-3.012-7.094-3.228c-.127-.507,1.654-1.942,1.748-2.52A4.8,4.8,0,0,0,219.532,237.156Z" fill="#fff"/>
            <path id="Path_429" data-name="Path 429" d="M219.6,233.973c-.133-1.309-1.822-4.028-2.1-5.314-.159-.736-2.673-.662-3.173-.69l-10.253-1.635c.194,6.321.68,9.467.265,14.256.967.659,3.951,4.854,9.87,3.16l2.965,4.606,1.43-6.237C221.2,241.027,220.441,238.274,219.6,233.973Z" fill="#dfa684"/>
            <path id="Path_430" data-name="Path 430" d="M214.209,243.75l-3.438,6.978c-8.027-2.848-9.737-10.175-9.069-11.4a10.9,10.9,0,0,1,2.8-3.291C204.505,243.743,212.354,243.935,214.209,243.75Z" fill="#fff"/>
          </g>
          <g id="Group_208" data-name="Group 208">
            <g id="Group_207" data-name="Group 207">
              <path id="Path_431" data-name="Path 431" d="M222.071,235.876c-.715,1.868-1.668,4.168-3.593,4.327a15.049,15.049,0,0,1-5.621-1.034,13.462,13.462,0,0,1-7.566-7.236c-2.007-4.34-4.507-7.711-2.364-11.975,1.063-2.116,7.834-3.494,9.978-4.858a18.505,18.505,0,0,1,4.9-2.021c4.873-1.4,8.827-.658,8.462,4.105a59.891,59.891,0,0,1-.722,7.077A46.625,46.625,0,0,1,222.071,235.876Z" fill="#ebbc9e"/>
              <path id="Path_432" data-name="Path 432" d="M220.357,205.309c-6.318-2.423-12.71-1.526-14.815,3.052-7.265,3.215-5.266,18.256-1.335,21.281-1.037-2.582-1.542-3.838-1.251-5.237.176-.845.763-1.775,1.626-1.768,3.65.029,3.734,5.76,5.115,6.243,2.364.829.7-5.731,3.335-7.913.86-.713,7.11-6.416,13.25-4.628C228.1,213,225.734,207.372,220.357,205.309Z" fill="#2e2c2a"/>
            </g>
          </g>
          <g id="Group_210" data-name="Group 210">
            <g id="Group_209" data-name="Group 209">
              <path id="Path_433" data-name="Path 433" d="M179.737,330.474a13.561,13.561,0,0,1,.83-3.585,11.306,11.306,0,0,1,.984-3.3c.134-.219.361-.459.6-.372a.574.574,0,0,1,.245.217,6.809,6.809,0,0,1,1.4,3.283,5.772,5.772,0,0,1-.787,3.712,2.378,2.378,0,0,1-.552.649,3.093,3.093,0,0,1-1.094.454c-.465.125-1.033.226-1.37-.119A1.286,1.286,0,0,1,179.737,330.474Z" fill="#ebbc9e"/>
              <path id="Path_434" data-name="Path 434" d="M182.515,329.477c-2.779,5.31-2.569,8.811-4.994,8.806-2.742-.006-4.171-2.158-4.717-4.845-.927-4.551,2.29-7.724,4.285-11.337,1.012-1.832,6.162-1.9,5.921-.88C181.986,325.537,182.794,328.454,182.515,329.477Z" fill="#ebbc9e"/>
            </g>
          </g>
          <g id="Group_211" data-name="Group 211">
            <path id="Path_435" data-name="Path 435" d="M188.343,250.128c-5.208,9.195-8.892,35.6-9.157,37.408-.719,4.889-3.318,34.853-3.318,34.853-.311,2.689,7.761,4.133,8.116,1.919l7.885-34.126s7.086-27.277,6.772-37.378c-.084-2.717-.016-5.018-3.051-6.592C193.781,245.275,191.323,244.869,188.343,250.128Z" fill="#fff"/>
          </g>
          <path id="Path_436" data-name="Path 436" d="M256.778,294.847a27.193,27.193,0,0,0-5.6-5.343c-1.1-.778-6.319,2.818-5.042,4.812.193.3,2.73,2.42,3.248,3.154,3.3,4.675,12.316.422,12.316.422A42.179,42.179,0,0,1,256.778,294.847Z" fill="#ebbc9e"/>
          <path id="Path_437" data-name="Path 437" d="M258.7,291.048a33.7,33.7,0,0,0-8.211-1.329s1.857,3.276,2.858,3.156c3.275-.392,5,.993,6.291-.265C260.261,292,259.5,291.385,258.7,291.048Z" fill="#ebbc9e"/>
        </g>
      </g>
      <g id="DESIGNED_BY_FREEPIK" data-name="DESIGNED BY FREEPIK">
        <g id="Group_220" data-name="Group 220">
          <g id="Group_219" data-name="Group 219">
            <path id="Path_441" data-name="Path 441" d="M535.57,330.294a10.172,10.172,0,0,0,2.505-1.057c4.645-2.344,13.787-7.97,18.185-10.875.454-.3.9-.612,1.351-.912a2.792,2.792,0,0,1,1.288-.375q1.209-.185,2.415-.393a1.542,1.542,0,0,0,1.28-.783c2.206-2.963,3.26-3.409,2.533-6.916a1.509,1.509,0,0,0-.36-.809c-.579-.551-2.476-.04-3.161.274-1.445.663-3.588,3.616-4.408,4.9a1.68,1.68,0,0,1-.921.784c-4,1.657-17.248,6.663-21.758,7.94-.327.093-1.367.538-1.7.309a120.4,120.4,0,0,1-13.446-10.562,17.8,17.8,0,0,0-3.635-2.8c-3.3-1.708-6.968,2.4-6.235,6.554C510.483,321.144,530.967,331.18,535.57,330.294Z" fill="#ebbc9e"/>
            <g id="Group_217" data-name="Group 217">
              <g id="Group_214" data-name="Group 214">
                <path id="Path_442" data-name="Path 442" d="M570.5,355.638a3.875,3.875,0,0,0,.331-2.2c0-.395.082-.8-.285-1.047a1.68,1.68,0,0,0-1.2-.106,48.482,48.482,0,0,0-8.844,2.043c-2.771.878-5.923,1.9-8.147,3.852-.3,2.285-1.11,5.22-.057,6.159a5.522,5.522,0,0,0,5.951,1.182c1.555-.541,4.05-2.431,6.481-4.438A43.028,43.028,0,0,0,570.5,355.638Z" fill="#ce9961"/>
                <path id="Path_443" data-name="Path 443" d="M570.174,354.4c2.2-2.2-1.068-5.189-4.676-3.93a41.648,41.648,0,0,0-7.733,4.1,9.021,9.021,0,0,1-2.7,1.135,4.1,4.1,0,0,0-2.913,3.29c-.24,1.425-.409,2.847-.045,3.289a5.839,5.839,0,0,0,5.712,1.473C560.746,362.74,567.971,356.6,570.174,354.4Z" fill="#2f2c30"/>
              </g>
              <path id="Path_444" data-name="Path 444" d="M556.745,360.665a15.364,15.364,0,0,0,4.644-2.433c1.935-1.3,3.622-2.731,2.79-4.521-.592-1.273-3.457-.638-4.978.067l-4.493,2.081a3.944,3.944,0,0,0-.927.538,2.63,2.63,0,0,0-.782,1.377,2.941,2.941,0,0,0-.057,1.589C553.326,360.13,555.153,360.995,556.745,360.665Z" fill="#ebbc9e"/>
              <path id="Path_445" data-name="Path 445" d="M560.185,354.615c-.09-.667-6.463-13.85-9.978-18.915-1.143-1.648-3.392-2.387-5.388-2.6A5.251,5.251,0,0,0,540.7,334.3c-6.352,5.451-10.692,18.2-16.359,34.289a11.448,11.448,0,0,0-.948,4.849c.24,2.429,1.969,3.166,3.822,4.143,2.439,1.286,4.578,1.929,7.344,1,3.751-1.257,4.053,1.012,5.476-2.293,2.99-6.943,7.671-24.667,7.671-24.667,1.112,1.725,3.627,3.1,5.444,5.7C554.379,359.472,559.824,358.158,560.185,354.615Z" fill="#88abc8"/>
              <path id="Path_446" data-name="Path 446" d="M560.185,354.615c-.09-.667-6.463-13.85-9.978-18.915-1.143-1.648-3.392-2.387-5.388-2.6A5.251,5.251,0,0,0,540.7,334.3c-6.352,5.451-10.692,18.2-16.359,34.289a11.448,11.448,0,0,0-.948,4.849c.24,2.429,1.969,3.166,3.822,4.143,2.439,1.286,4.578,1.929,7.344,1,3.751-1.257,4.053,1.012,5.476-2.293,2.99-6.943,7.671-24.667,7.671-24.667,1.112,1.725,3.627,3.1,5.444,5.7C554.379,359.472,559.824,358.158,560.185,354.615Z" fill="#2f2c30"/>
              <g id="Group_215" data-name="Group 215">
                <path id="Path_447" data-name="Path 447" d="M613.019,377.6c1.245-.936,1.014-3.45.849-4.526a.649.649,0,0,0-.576-.562c-4.712-.482-19.881.852-24.858,3.365-.408,2.231-.724,4.284.7,6.053,1.49,1.856,4.34,1.835,6.705,1.564C599.923,383.021,610.265,379.667,613.019,377.6Z" fill="#b65991"/>
                <path id="Path_448" data-name="Path 448" d="M612.764,375.77c1.575-1.184,2.2-4.719-2.5-4.719-4.019,0-16.768.527-21.84,3.087-.4,2.191-.71,4.207.685,5.944,1.463,1.823,4.166,1.5,6.489,1.231C599.612,380.853,610.06,377.8,612.764,375.77Z" fill="#e386ba"/>
              </g>
              <path id="Path_449" data-name="Path 449" d="M589.265,376.632c.557.99,1.588,1.511,3.729,1.316,3-.275,8.555-2.471,8.983-2.632,3.838-1.436,2.339-3.7-.377-3.858-.48-.028-4.533-.407-4.533-.407a23.919,23.919,0,0,1-3.2-2.044,6.334,6.334,0,0,0-1.465-1.04,2.1,2.1,0,0,0-1.745-.066,2.916,2.916,0,0,0-.8.648,8.849,8.849,0,0,0-1.561,2.056c-.414.812-1.347,1.4-1.039,2.3A28.151,28.151,0,0,0,589.265,376.632Z" fill="#ebbc9e"/>
              <path id="Path_450" data-name="Path 450" d="M594.185,368.347c-5.581-5.582-22.787-21.417-26.426-23a3.262,3.262,0,0,0-4.386.567c-9.3,7.93-17.464,16.915-26.11,25.513a25.215,25.215,0,0,0-3.274,4.737L509.24,368.9c.136.039-3.319,4.658-3.552,5.229-6.566,16.061,6.175,32.136,27.014,31.227,10.34-.451,13.9-5.467,15.738-7.849,9.928-12.868,12.421-21.814,20.142-34.153,6.542,5.756,12.825,6.309,19.216,11.561C589.26,376.118,597.619,371.78,594.185,368.347Z" fill="#2f2c30"/>
              <g id="Group_216" data-name="Group 216">
                <path id="Path_451" data-name="Path 451" d="M505.6,375.083c.5-5.651,6.63-12.59,6.9-19.627.223-5.863-3.846-21.938-3.794-27.577.116-12.471.361-14.9,5.083-18.009,3.308-2.18,16.622,3.163,19.867,4.588,5.488,2.617,9.228,6.022,10.941,8.529,3.993,5.266-2.394,19.917-3.213,39a137.008,137.008,0,0,0,1.044,15.977,2.348,2.348,0,0,1-.844,2.16C526.619,391.931,506.477,381.36,505.6,375.083Z" fill="#628f29"/>
                <path id="Path_452" data-name="Path 452" d="M535.151,305.539c-.04-.241-14.64-2.974-14.777-1.631-.343,1.761-.362,7.332-.412,9.271-.116,4.55,14.062,5.931,15.277,1.922C534.907,310.37,535.446,307.347,535.151,305.539Z" fill="#ebbc9e"/>
              </g>
            </g>
            <path id="Path_453" data-name="Path 453" d="M540.845,350.077c2.02-3.274,5.139-14.716,4.852-22.191-.159-4.131-1.877-6.7-4.064-5.953C533.317,324.776,537.177,356.024,540.845,350.077Z" fill="#ebbc9e"/>
            <g id="Group_218" data-name="Group 218" style="isolation: isolate">
              <path id="Path_454" data-name="Path 454" d="M571.352,304.663l-5.544-3.2a.594.594,0,0,0-.386-.077l-.856.126a.592.592,0,0,1,.385.077l5.544,3.2a1.248,1.248,0,0,1,.463,1.325L567.4,319.04a.736.736,0,0,1-.571.581l.857-.126a.739.739,0,0,0,.571-.581l3.56-12.926A1.245,1.245,0,0,0,571.352,304.663Z" fill="#ddd9df"/>
              <path id="Path_455" data-name="Path 455" d="M570.495,304.789l-5.544-3.2a.668.668,0,0,0-.965.5l-3.561,12.926a1.225,1.225,0,0,0,.463,1.325l5.544,3.2a.659.659,0,0,0,.965-.5l3.561-12.926A1.248,1.248,0,0,0,570.495,304.789Z" fill="#ddd9df"/>
              <path id="Path_456" data-name="Path 456" d="M564.237,302.159l-3.379,12.195,6.469,3.887,3.379-12.195Z" fill="#7f9bfb"/>
            </g>
            <path id="Path_457" data-name="Path 457" d="M564.128,343.48c.8-.154,1.277-1.288,1.57-1.932a24.245,24.245,0,0,0,1.405-4.421c.764-3.2,1.534-15.6,1.908-16.324a54.142,54.142,0,0,0,2.685-6.05,7.33,7.33,0,0,0,.039-1.867,5.744,5.744,0,0,0-.924-3.317,9.247,9.247,0,0,1-1.012,2.89,2.649,2.649,0,0,1-1.03,1.151,1.121,1.121,0,0,1-1.411-.257c-.287-.426-.3-2.716-.767-2.921a.689.689,0,0,0-.809.311,11.681,11.681,0,0,0-.1,2.5,36.54,36.54,0,0,1,.27,4.759,18.142,18.142,0,0,1-.419,2.118c-.408,1.794-.8,3.589-1.216,5.382-.539,2.355-1.081,4.713-1.725,7.041-.056.2-.909,3.235-1.218,3.027a120.7,120.7,0,0,1-13.446-10.562,17.713,17.713,0,0,0-3.635-2.8c-3.3-1.708-6.967,2.4-6.234,6.555C539.041,334.33,559.525,344.365,564.128,343.48Z" fill="#ebbc9e"/>
            <path id="Path_458" data-name="Path 458" d="M520.064,308.29c.331.88,12.228,1.081,16.82.387a2.676,2.676,0,0,0,2.157-1.924,91.583,91.583,0,0,0,2.154-11.939c.559-6.64-.136-4.347-2.022-8.694a8.86,8.86,0,0,0-1.887-3.012c-2.6-2.45-17.072-6.383-19.062,3.407C517,292.522,517.905,302.547,520.064,308.29Z" fill="#ebbc9e"/>
            <path id="Path_459" data-name="Path 459" d="M540.639,281.212a10.743,10.743,0,0,0-6.7-4.524,18.857,18.857,0,0,0-7.728-.513c-8.6,1.659-10.015,10.832-9.88,18.19.248,13.589-2.13,25.258-3.277,31.426a4.561,4.561,0,0,0,2.046,4.692c7.654,4.8,15.34,5.058,16.475,4.266,3.222-2.248,2.11-20.209,1.864-22.811-.326-3.452-.077-18.19,3.189-18.9,1.68-.805.941,3.581.859,4.122-.193,1.264.761,1.719,1.571,1.051,1.409-1.164.682-5.577,2.406-6.982C542.708,287.378,542.376,283.983,540.639,281.212Z" fill="#3a342f"/>
          </g>
        </g>
      </g>
    </g>
  </g>
</svg>
