<svg id="up-arrow" xmlns="http://www.w3.org/2000/svg" width="30" height="28.174" viewBox="0 0 30 28.174">
  <path id="Path_308" data-name="Path 308" d="M22.617,17.725l5.049-4.775V27.672a1.536,1.536,0,0,0,3.067,0V12.95l5.049,4.775a1.6,1.6,0,0,0,2.168,0,1.4,1.4,0,0,0,0-2.05l-7.667-7.25a1.6,1.6,0,0,0-2.168,0l-7.667,7.25a1.4,1.4,0,0,0,0,2.05A1.6,1.6,0,0,0,22.617,17.725Z" transform="translate(-14.2 -8)" fill="#05ccce"/>
  <path id="Path_309" data-name="Path 309" d="M40.5,40A1.476,1.476,0,0,0,39,41.45v5.8a1.477,1.477,0,0,1-1.5,1.45h-21A1.477,1.477,0,0,1,15,47.25v-5.8a1.5,1.5,0,0,0-3,0v5.8a4.431,4.431,0,0,0,4.5,4.35h21A4.431,4.431,0,0,0,42,47.25v-5.8A1.476,1.476,0,0,0,40.5,40Z" transform="translate(-12 -23.426)" fill="#05ccce"/>
</svg>
