<svg id="delete" xmlns="http://www.w3.org/2000/svg" width="20.305" height="25" viewBox="0 0 20.305 25">
  <path id="Path_310" data-name="Path 310" d="M223.012,154.7a.614.614,0,0,0-.614.614v11.606a.614.614,0,0,0,1.228,0V155.317A.614.614,0,0,0,223.012,154.7Zm0,0" transform="translate(-209.416 -146.431)" fill="#ff3c3c"/>
  <path id="Path_311" data-name="Path 311" d="M105.012,154.7a.614.614,0,0,0-.614.614v11.606a.614.614,0,1,0,1.228,0V155.317A.614.614,0,0,0,105.012,154.7Zm0,0" transform="translate(-98.304 -146.431)" fill="#ff3c3c"/>
  <path id="Path_312" data-name="Path 312" d="M1.66,7.441V21.866a3.23,3.23,0,0,0,.859,2.228A2.883,2.883,0,0,0,4.61,25H15.688a2.882,2.882,0,0,0,2.092-.9,3.23,3.23,0,0,0,.859-2.228V7.441a2.237,2.237,0,0,0-.574-4.4h-3V2.311A2.3,2.3,0,0,0,12.749,0H7.55A2.3,2.3,0,0,0,5.231,2.311v.732h-3a2.237,2.237,0,0,0-.574,4.4ZM15.688,23.828H4.61a1.854,1.854,0,0,1-1.78-1.961V7.493H17.468V21.866A1.854,1.854,0,0,1,15.688,23.828ZM6.4,2.311A1.128,1.128,0,0,1,7.55,1.17h5.2A1.128,1.128,0,0,1,13.9,2.311v.732H6.4Zm-4.169,1.9H18.065a1.054,1.054,0,0,1,0,2.108H2.233a1.054,1.054,0,1,1,0-2.108Zm0,0" transform="translate(0.003 0.001)" fill="#ff3c3c"/>
  <path id="Path_313" data-name="Path 313" d="M164.013,154.7a.614.614,0,0,0-.614.614v11.606a.614.614,0,1,0,1.228,0V155.317A.614.614,0,0,0,164.013,154.7Zm0,0" transform="translate(-153.86 -146.431)" fill="#ff3c3c"/>
</svg>
